<svg width="45" height="61" viewBox="0 0 45 61" fill="none" xmlns="http://www.w3.org/2000/svg">
<path d="M14.9723 43.579C14.9723 44.4833 14.6876 45.2035 14.1182 45.7394C13.5822 46.2753 12.9793 46.5433 12.3094 46.5433C11.7735 46.5433 11.2878 46.3925 10.8524 46.0911C10.4505 45.7561 10.2495 45.304 10.2495 44.7345C10.2495 44.1651 10.417 43.646 10.7519 43.177C11.1204 42.6746 11.539 42.3062 12.008 42.0717C11.3046 41.7032 10.5342 41.519 9.69682 41.519C8.29003 41.519 7.06746 42.0717 6.02911 43.177C5.02426 44.2489 4.52183 45.5384 4.52183 47.0457C4.52183 49.1224 5.19173 50.6967 6.53154 51.7685C7.87134 52.8403 9.56284 53.3763 11.606 53.3763C14.1182 53.3763 16.1446 52.8236 17.6854 51.7183C19.2262 50.6129 19.9965 48.8879 19.9965 46.5433C19.9965 45.0025 19.4774 43.6627 18.439 42.5239C17.4342 41.3515 16.2116 40.3802 14.7713 39.6098C13.331 38.8394 11.8907 38.0523 10.4505 37.2484C9.01017 36.4445 7.77085 35.4062 6.73251 34.1334C5.72765 32.8605 5.22523 31.3868 5.22523 29.712C5.22523 27.2669 6.0961 25.4414 7.83784 24.2356C9.61308 22.9963 11.8238 22.3766 14.4699 22.3766C16.7475 22.3766 18.6735 22.9125 20.2478 23.9844C21.8555 25.0227 22.6594 26.6472 22.6594 28.8579C22.6594 30.3987 22.1737 31.772 21.2024 32.9778C20.2645 34.1836 18.9749 34.7865 17.3337 34.7865C16.4963 34.7865 15.7762 34.5855 15.1733 34.1836C14.5703 33.7482 14.2689 33.162 14.2689 32.4251C14.2689 31.8892 14.4531 31.4705 14.8216 31.169C15.2235 30.8341 15.6924 30.6666 16.2284 30.6666C16.6638 30.6666 17.1327 30.8508 17.6351 31.2193C18.1711 31.5877 18.5898 32.0399 18.8912 32.5758C19.7956 31.4705 20.2478 30.3317 20.2478 29.1593C20.2478 27.6856 19.6783 26.5467 18.5395 25.7428C17.4007 24.9055 16.0609 24.4868 14.5201 24.4868C12.7449 24.4868 11.1873 24.9557 9.84755 25.8936C8.50774 26.8314 7.83784 28.1042 7.83784 29.712C7.83784 30.8843 8.34027 31.9729 9.34512 32.9778C10.3835 33.9826 11.6228 34.887 13.0631 35.6909C14.5369 36.4948 15.9939 37.3321 17.4342 38.203C18.908 39.0739 20.1473 40.196 21.1521 41.5693C22.1905 42.9426 22.7096 44.5001 22.7096 46.2418C22.7096 49.3569 21.755 51.6848 19.8458 53.2255C17.9366 54.7663 15.3407 55.5367 12.0582 55.5367C9.21114 55.5367 6.83299 54.85 4.92377 53.4768C3.01455 52.07 2.05995 49.943 2.05995 47.0959C2.05995 44.8853 2.74659 43.0765 4.11989 41.6697C5.52668 40.263 7.48614 39.5596 9.99827 39.5596C11.2041 39.5596 12.3262 39.9113 13.3645 40.6147C14.4364 41.2846 14.9723 42.2727 14.9723 43.579Z" fill="#25282B"/>
<path d="M29.9222 43.5791C29.9222 44.4835 30.2069 45.2037 30.7764 45.7396C31.3123 46.2755 31.9152 46.5435 32.5851 46.5435C33.121 46.5435 33.6067 46.3927 34.0421 46.0913C34.4441 45.7563 34.645 45.3041 34.645 44.7347C34.645 44.1653 34.4776 43.6461 34.1426 43.1772C33.7742 42.6748 33.3555 42.3063 32.8866 42.0719C33.59 41.7034 34.3603 41.5192 35.1977 41.5192C36.6045 41.5192 37.8271 42.0719 38.8654 43.1772C39.8703 44.249 40.3727 45.5386 40.3727 47.0459C40.3727 49.1226 39.7028 50.6968 38.363 51.7687C37.0232 52.8405 35.3317 53.3765 33.2885 53.3765C30.7764 53.3765 28.7499 52.8238 27.2091 51.7184C25.6684 50.6131 24.898 48.8881 24.898 46.5435C24.898 45.0027 25.4172 43.6629 26.4555 42.5241C27.4604 41.3517 28.6829 40.3804 30.1232 39.61C31.5635 38.8396 33.0038 38.0525 34.4441 37.2486C35.8844 36.4447 37.1237 35.4064 38.162 34.1335C39.1669 32.8607 39.6693 31.3869 39.6693 29.7122C39.6693 27.2671 38.7984 25.4416 37.0567 24.2358C35.2815 22.9964 33.0708 22.3768 30.4247 22.3768C28.147 22.3768 26.221 22.9127 24.6468 23.9845C23.039 25.0229 22.2351 26.6474 22.2351 28.8581C22.2351 30.3988 22.7208 31.7721 23.6922 32.978C24.63 34.1838 25.9196 34.7867 27.5608 34.7867C28.3982 34.7867 29.1184 34.5857 29.7213 34.1838C30.3242 33.7483 30.6256 33.1622 30.6256 32.4253C30.6256 31.8894 30.4414 31.4707 30.073 31.1692C29.671 30.8343 29.2021 30.6668 28.6662 30.6668C28.2307 30.6668 27.7618 30.851 27.2594 31.2195C26.7235 31.5879 26.3048 32.0401 26.0033 32.576C25.099 31.4707 24.6468 30.3319 24.6468 29.1595C24.6468 27.6857 25.2162 26.5469 26.355 25.743C27.4939 24.9057 28.8337 24.487 30.3744 24.487C32.1497 24.487 33.7072 24.9559 35.047 25.8938C36.3868 26.8316 37.0567 28.1044 37.0567 29.7122C37.0567 30.8845 36.5543 31.9731 35.5494 32.978C34.5111 33.9828 33.2717 34.8872 31.8315 35.6911C30.3577 36.4949 28.9006 37.3323 27.4604 38.2032C25.9866 39.0741 24.7473 40.1961 23.7424 41.5694C22.7041 42.9427 22.1849 44.5003 22.1849 46.242C22.1849 49.357 23.1395 51.685 25.0487 53.2257C26.9579 54.7665 29.5538 55.5369 32.8363 55.5369C35.6834 55.5369 38.0615 54.8502 39.9708 53.4769C41.88 52.0701 42.8346 49.9432 42.8346 47.0961C42.8346 44.8855 42.1479 43.0767 40.7746 41.6699C39.3678 40.2631 37.4084 39.5597 34.8963 39.5597C33.6904 39.5597 32.5684 39.9114 31.53 40.6148C30.4582 41.2847 29.9222 42.2728 29.9222 43.5791Z" fill="#25282B"/>
<path d="M33.935 1.94178C34.5778 2.18849 35.0262 2.59977 35.2802 3.17561C35.5342 3.75146 35.5355 4.3599 35.2843 5.00095C34.9991 5.72862 34.5284 6.21567 33.8722 6.46211C33.216 6.70854 32.5579 6.70507 31.8977 6.45168C31.2375 6.1983 30.777 5.79235 30.5163 5.23383C30.2555 4.67532 30.2507 4.07553 30.5019 3.43449C30.7532 2.79345 31.1997 2.31705 31.8415 2.0053C32.5075 1.6829 33.2053 1.66172 33.935 1.94178ZM33.3113 3.22717C32.9812 3.10048 32.6572 3.08575 32.3393 3.18298C32.0456 3.26955 31.8308 3.48609 31.695 3.8326C31.4505 4.45632 31.6845 4.90487 32.3968 5.17826C32.7268 5.30495 33.0474 5.32834 33.3586 5.24844C33.6697 5.16854 33.8932 4.95533 34.029 4.60882C34.2802 3.96778 34.041 3.50723 33.3113 3.22717ZM27.9133 20.2898C27.5431 19.9085 27.4497 19.484 27.633 19.0162C27.762 18.687 27.987 18.4444 28.3079 18.2886C28.6288 18.1327 28.963 18.1214 29.3104 18.2548C29.6405 18.3815 29.8763 18.6215 30.0176 18.9747C30.159 19.3279 30.1618 19.6778 30.026 20.0243C29.7136 20.8213 29.0092 21.3183 27.9127 21.5153C26.8162 21.7123 25.8162 21.6375 24.9128 21.2907C24.2179 21.024 23.7072 20.6187 23.3807 20.0749C23.0716 19.5377 23.0563 18.9139 23.3347 18.2035C23.6402 17.4239 24.3014 16.5017 25.3183 15.437C26.342 14.3549 27.3385 13.3422 28.3078 12.3987C29.2839 11.438 29.8637 10.7237 30.047 10.2559C30.2235 9.80543 30.086 9.49351 29.6343 9.32015C29.2521 9.17345 28.72 9.12869 28.038 9.18585C27.3735 9.24969 26.9 9.38687 26.6176 9.5974C26.7989 9.74671 26.9251 9.93467 26.9962 10.1613C27.0847 10.3945 27.0848 10.6238 26.9965 10.849C26.8878 11.1262 26.6972 11.3321 26.4247 11.4667C26.1521 11.6012 25.8855 11.6185 25.6249 11.5185C24.9821 11.2718 24.8644 10.6286 25.2718 9.58911C25.5909 8.77481 26.2346 8.25447 27.2027 8.0281C28.1882 7.80839 29.1239 7.86857 30.0099 8.20863C30.6006 8.43535 31.0259 8.77798 31.2859 9.23653C31.5459 9.69509 31.5571 10.2276 31.3194 10.834C31.1632 11.2324 30.6005 11.9034 29.6311 12.8469C28.6792 13.797 27.7035 14.8077 26.704 15.8791C25.7113 16.9332 25.0757 17.8154 24.7973 18.5257C24.485 19.3227 24.7023 19.8646 25.4493 20.1513C26.3875 20.5113 27.2088 20.5575 27.9133 20.2898Z" fill="#25282B"/>
<path d="M11.7756 1.94178C11.1328 2.18849 10.6844 2.59977 10.4305 3.17561C10.1765 3.75146 10.1751 4.3599 10.4263 5.00095C10.7115 5.72862 11.1822 6.21567 11.8384 6.46211C12.4946 6.70854 13.1528 6.70507 13.813 6.45168C14.4731 6.1983 14.9336 5.79235 15.1944 5.23383C15.4552 4.67532 15.4599 4.07553 15.2087 3.43449C14.9574 2.79345 14.5109 2.31705 13.8691 2.0053C13.2031 1.6829 12.5053 1.66172 11.7756 1.94178ZM12.3993 3.22717C12.7294 3.10048 13.0534 3.08575 13.3713 3.18298C13.6651 3.26955 13.8798 3.48609 14.0156 3.8326C14.2601 4.45632 14.0262 4.90487 13.3139 5.17826C12.9838 5.30495 12.6632 5.32834 12.3521 5.24844C12.0409 5.16854 11.8175 4.95533 11.6817 4.60882C11.4304 3.96778 11.6697 3.50723 12.3993 3.22717ZM17.7973 20.2898C18.1675 19.9085 18.261 19.484 18.0776 19.0162C17.9486 18.687 17.7237 18.4444 17.4027 18.2886C17.0818 18.1327 16.7476 18.1214 16.4002 18.2548C16.0701 18.3815 15.8344 18.6215 15.693 18.9747C15.5516 19.3279 15.5489 19.6778 15.6847 20.0243C15.997 20.8213 16.7014 21.3183 17.798 21.5153C18.8945 21.7123 19.8944 21.6375 20.7978 21.2907C21.4927 21.024 22.0034 20.6187 22.3299 20.0749C22.639 19.5377 22.6544 18.9139 22.376 18.2035C22.0704 17.4239 21.4092 16.5017 20.3923 15.437C19.3687 14.3549 18.3722 13.3422 17.4028 12.3987C16.4267 11.438 15.847 10.7237 15.6636 10.2559C15.4871 9.80543 15.6247 9.49351 16.0764 9.32015C16.4586 9.17345 16.9906 9.12869 17.6726 9.18585C18.3372 9.24969 18.8106 9.38687 19.093 9.5974C18.9117 9.74671 18.7855 9.93467 18.7144 10.1613C18.626 10.3945 18.6259 10.6238 18.7141 10.849C18.8228 11.1262 19.0134 11.3321 19.286 11.4667C19.5586 11.6012 19.8252 11.6185 20.0857 11.5185C20.7285 11.2718 20.8462 10.6286 20.4388 9.58911C20.1197 8.77481 19.4761 8.25447 18.508 8.0281C17.5225 7.80839 16.5867 7.86857 15.7007 8.20863C15.11 8.43535 14.6847 8.77798 14.4247 9.23653C14.1647 9.69509 14.1536 10.2276 14.3912 10.834C14.5474 11.2324 15.1101 11.9034 16.0795 12.8469C17.0315 13.797 18.0072 14.8077 19.0067 15.8791C19.9994 16.9332 20.6349 17.8154 20.9133 18.5257C21.2257 19.3227 21.0083 19.8646 20.2613 20.1513C19.3232 20.5113 18.5018 20.5575 17.7973 20.2898Z" fill="#25282B"/>
</svg>
