<svg width="468" height="710" viewBox="0 0 468 710" fill="none" xmlns="http://www.w3.org/2000/svg">
<mask id="mask0_4_390" style="mask-type:alpha" maskUnits="userSpaceOnUse" x="0" y="0" width="468" height="710">
<ellipse cx="234" cy="355" rx="234" ry="355" fill="#D9D9D9"/>
</mask>
<g mask="url(#mask0_4_390)">
<path fill-rule="evenodd" clip-rule="evenodd" d="M343.555 85.5007C343.555 85.5007 369.24 81.7751 376.027 108.925C400.914 117.975 394.127 145.122 394.127 145.122C394.127 145.122 406.625 166.451 381.796 177.377C379.807 199.228 354.978 195.254 354.978 195.254C354.978 195.254 349.018 212.14 330.146 205.188C309.786 221.025 285.527 201.685 285.527 201.685C285.527 201.685 262.903 210.735 253.856 201.685C233.493 208.472 210.867 183.585 210.867 183.585C210.867 183.585 198.157 186.814 189.107 166.451C165.468 170.119 139.642 139.992 161.295 111.821C147.091 89.3363 163.281 76.0636 163.281 76.0636C163.281 76.0636 158.812 24.4141 194.57 17.4625C212.942 -10.3493 252.674 11.9995 252.674 11.9995C252.674 11.9995 278.994 6.5366 288.431 29.3826C317.842 33.9063 316.463 50.0727 318.726 63.649C345.044 65.1377 343.555 85.5007 343.555 85.5007Z" fill="black"/>
<path fill-rule="evenodd" clip-rule="evenodd" d="M261.042 59.8516C240.417 63.4701 234.151 47.8661 234.151 47.8661C234.151 47.8661 225.643 25.8888 223.463 39.3813C222.304 46.5527 211.219 37.0371 206.122 44.682C202.692 49.8258 206.122 57.1385 200.123 70.1706C193.666 78.1164 195.403 90.1385 203.422 99.1048C203.422 99.1048 200.123 112.138 195.403 122.814L191.159 143.63L235.386 143.562L233.963 119.591C263.76 119.591 265.215 78.6344 261.042 59.8516Z" fill="#FFC999"/>
<path d="M233.974 221.201C233.449 220.495 233.161 219.494 233.161 218.384C233.161 216.75 234.222 216 235.661 216C237.161 216 238.161 216.75 238.161 218.384C238.161 219.496 237.856 220.498 237.367 221.201L236.035 223.393C235.897 223.619 235.427 223.619 235.29 223.393L233.974 221.201Z" fill="white"/>
<path d="M232.982 224.332C232.149 224.613 231.108 224.577 230.052 224.235C228.498 223.73 228.112 222.49 228.557 221.12C229.021 219.694 230.043 218.974 231.597 219.479C232.655 219.823 233.513 220.423 234.031 221.106L235.704 223.05C235.877 223.25 235.731 223.698 235.473 223.758L232.982 224.332Z" fill="white"/>
<path d="M235.682 226.438C235.691 227.318 235.336 228.297 234.684 229.195C233.723 230.517 232.425 230.5 231.26 229.654C230.046 228.773 229.678 227.578 230.639 226.256C231.292 225.356 232.128 224.726 232.937 224.444L235.303 223.454C235.547 223.351 235.928 223.628 235.905 223.892L235.682 226.438Z" fill="white"/>
<path d="M238.443 224.396C239.282 224.659 240.104 225.3 240.756 226.198C241.716 227.52 241.3 228.75 240.135 229.596C238.921 230.477 237.671 230.458 236.711 229.137C236.057 228.237 235.716 227.247 235.698 226.39L235.487 223.834C235.465 223.57 235.846 223.294 236.09 223.397L238.443 224.396Z" fill="white"/>
<path d="M237.339 221.132C237.849 220.415 238.712 219.832 239.767 219.489C241.321 218.984 242.362 219.76 242.807 221.13C243.271 222.556 242.867 223.739 241.312 224.244C240.255 224.588 239.208 224.607 238.388 224.359L235.892 223.769C235.634 223.709 235.489 223.261 235.662 223.061L237.339 221.132Z" fill="white"/>
<g style="mix-blend-mode:multiply">
<path d="M234.211 223.008C233.939 223.807 234.367 224.676 235.167 224.948C235.966 225.22 236.835 224.792 237.107 223.992C237.379 223.193 236.951 222.324 236.152 222.052C235.352 221.78 234.483 222.208 234.211 223.008Z" fill="#E9C76F"/>
<path fill-rule="evenodd" clip-rule="evenodd" d="M229.83 223.325L241.3 223.482L241.297 223.673L229.828 223.516L229.83 223.325Z" fill="#E9C76F"/>
<path d="M241.39 223.865C241.232 223.863 241.105 223.733 241.107 223.575C241.11 223.416 241.24 223.29 241.398 223.292C241.556 223.294 241.683 223.424 241.681 223.583C241.679 223.741 241.549 223.868 241.39 223.865Z" fill="#E9C76F"/>
<path d="M229.921 223.708C229.762 223.706 229.636 223.576 229.638 223.418C229.64 223.259 229.77 223.133 229.929 223.135C230.087 223.137 230.214 223.267 230.211 223.426C230.209 223.584 230.079 223.711 229.921 223.708Z" fill="#E9C76F"/>
<path fill-rule="evenodd" clip-rule="evenodd" d="M231.047 219.932L240.233 226.801L240.119 226.954L230.932 220.085L231.047 219.932Z" fill="#E9C76F"/>
<path d="M240.081 227.164C239.954 227.069 239.928 226.89 240.023 226.763C240.118 226.636 240.298 226.61 240.424 226.705C240.551 226.8 240.577 226.979 240.482 227.106C240.388 227.233 240.208 227.259 240.081 227.164Z" fill="#E9C76F"/>
<path d="M230.894 220.295C230.767 220.201 230.742 220.021 230.836 219.894C230.931 219.767 231.111 219.741 231.238 219.836C231.365 219.931 231.391 220.111 231.296 220.238C231.201 220.364 231.021 220.39 230.894 220.295Z" fill="#E9C76F"/>
<path fill-rule="evenodd" clip-rule="evenodd" d="M234.025 217.902L237.42 228.859L237.237 228.915L233.842 217.959L234.025 217.902Z" fill="#E9C76F"/>
<path d="M237.083 229.063C237.036 228.912 237.121 228.751 237.272 228.705C237.423 228.658 237.584 228.742 237.631 228.894C237.678 229.045 237.593 229.206 237.442 229.252C237.29 229.299 237.13 229.215 237.083 229.063Z" fill="#E9C76F"/>
<path d="M233.688 218.107C233.641 217.955 233.726 217.795 233.877 217.748C234.028 217.701 234.189 217.786 234.236 217.937C234.283 218.088 234.198 218.249 234.047 218.296C233.896 218.343 233.735 218.258 233.688 218.107Z" fill="#E9C76F"/>
<path fill-rule="evenodd" clip-rule="evenodd" d="M237.628 218.011L233.934 228.87L233.753 228.809L237.447 217.949L237.628 218.011Z" fill="#E9C76F"/>
<path d="M233.541 228.838C233.592 228.688 233.755 228.607 233.905 228.658C234.055 228.709 234.135 228.872 234.084 229.022C234.033 229.172 233.87 229.252 233.72 229.201C233.57 229.15 233.49 228.988 233.541 228.838Z" fill="#E9C76F"/>
<path d="M237.235 217.978C237.286 217.828 237.449 217.748 237.599 217.799C237.749 217.85 237.829 218.013 237.778 218.163C237.727 218.313 237.564 218.393 237.414 218.342C237.264 218.291 237.184 218.128 237.235 217.978Z" fill="#E9C76F"/>
<path fill-rule="evenodd" clip-rule="evenodd" d="M240.478 220.216L231.107 226.83L230.997 226.674L240.368 220.06L240.478 220.216Z" fill="#E9C76F"/>
<path d="M230.808 226.573C230.938 226.482 231.117 226.513 231.208 226.642C231.299 226.771 231.268 226.95 231.139 227.042C231.01 227.133 230.831 227.102 230.739 226.973C230.648 226.843 230.679 226.664 230.808 226.573Z" fill="#E9C76F"/>
<path d="M240.18 219.959C240.309 219.867 240.488 219.898 240.579 220.027C240.671 220.157 240.64 220.336 240.51 220.427C240.381 220.518 240.202 220.488 240.111 220.358C240.019 220.229 240.05 220.05 240.18 219.959Z" fill="#E9C76F"/>
<path fill-rule="evenodd" clip-rule="evenodd" d="M241.488 223.676L230.019 223.518L230.022 223.327L241.491 223.484L241.488 223.676Z" fill="#E9C76F"/>
<path d="M229.929 223.135C230.087 223.137 230.214 223.267 230.211 223.426C230.209 223.584 230.079 223.711 229.921 223.708C229.762 223.706 229.636 223.576 229.638 223.418C229.64 223.259 229.77 223.133 229.929 223.135Z" fill="#E9C76F"/>
<path d="M241.398 223.292C241.556 223.294 241.683 223.424 241.681 223.583C241.679 223.741 241.549 223.868 241.39 223.865C241.232 223.863 241.105 223.733 241.107 223.575C241.11 223.416 241.24 223.29 241.398 223.292Z" fill="#E9C76F"/>
<path fill-rule="evenodd" clip-rule="evenodd" d="M240.272 227.068L231.085 220.2L231.2 220.046L240.387 226.915L240.272 227.068Z" fill="#E9C76F"/>
<path d="M231.238 219.836C231.365 219.931 231.391 220.111 231.296 220.238C231.201 220.364 231.021 220.39 230.894 220.295C230.767 220.201 230.742 220.021 230.836 219.894C230.931 219.767 231.111 219.741 231.238 219.836Z" fill="#E9C76F"/>
<path d="M240.424 226.705C240.551 226.8 240.577 226.979 240.482 227.106C240.388 227.233 240.208 227.259 240.081 227.164C239.954 227.069 239.928 226.89 240.023 226.763C240.118 226.636 240.298 226.61 240.424 226.705Z" fill="#E9C76F"/>
<path fill-rule="evenodd" clip-rule="evenodd" d="M237.294 229.098L233.899 218.141L234.082 218.085L237.476 229.042L237.294 229.098Z" fill="#E9C76F"/>
<path d="M234.236 217.937C234.283 218.088 234.198 218.249 234.047 218.296C233.896 218.343 233.735 218.258 233.688 218.107C233.641 217.955 233.726 217.795 233.877 217.748C234.028 217.701 234.189 217.786 234.236 217.937Z" fill="#E9C76F"/>
<path d="M237.631 228.894C237.678 229.045 237.593 229.206 237.442 229.252C237.29 229.299 237.13 229.215 237.083 229.063C237.036 228.912 237.121 228.751 237.272 228.705C237.423 228.658 237.584 228.742 237.631 228.894Z" fill="#E9C76F"/>
<path fill-rule="evenodd" clip-rule="evenodd" d="M233.691 228.99L237.385 218.13L237.566 218.192L233.872 229.051L233.691 228.99Z" fill="#E9C76F"/>
<path d="M237.778 218.163C237.727 218.313 237.564 218.393 237.414 218.342C237.264 218.291 237.184 218.128 237.235 217.978C237.286 217.828 237.449 217.748 237.599 217.799C237.749 217.85 237.829 218.013 237.778 218.163Z" fill="#E9C76F"/>
<path d="M234.084 229.022C234.033 229.172 233.87 229.252 233.72 229.201C233.57 229.15 233.49 228.988 233.541 228.838C233.592 228.688 233.755 228.607 233.905 228.658C234.055 228.709 234.135 228.872 234.084 229.022Z" fill="#E9C76F"/>
<path fill-rule="evenodd" clip-rule="evenodd" d="M230.84 226.784L240.212 220.17L240.322 220.326L230.951 226.941L230.84 226.784Z" fill="#E9C76F"/>
<path d="M240.51 220.427C240.381 220.518 240.202 220.488 240.111 220.358C240.019 220.229 240.05 220.05 240.18 219.959C240.309 219.867 240.488 219.898 240.579 220.027C240.671 220.157 240.64 220.336 240.51 220.427Z" fill="#E9C76F"/>
<path d="M231.139 227.042C231.01 227.133 230.831 227.102 230.739 226.973C230.648 226.843 230.679 226.664 230.808 226.573C230.938 226.482 231.117 226.513 231.208 226.642C231.299 226.771 231.268 226.95 231.139 227.042Z" fill="#E9C76F"/>
<circle cx="0.764706" cy="0.764706" r="0.764706" transform="matrix(-0.946736 -0.32201 -0.32201 0.946736 236.629 223.022)" fill="#E9C76F"/>
</g>
<path d="M190.885 27.2264C192.064 25.1847 194.554 25.3732 196.353 26.4117C198.227 27.4937 199.56 29.5128 198.381 31.5544C196.888 34.1399 194.107 35.0176 191.486 35.9179C191.151 36.1014 190.564 35.7615 190.556 35.38C190.043 32.6799 189.406 29.787 190.885 27.2264Z" fill="url(#paint0_linear_4_390)"/>
<path d="M182.869 33.1366C181.291 31.3846 182.24 29.0744 183.784 27.6845C185.392 26.2365 187.724 25.5926 189.301 27.3445C191.299 29.5632 191.274 32.4795 191.321 35.2503C191.392 35.6256 190.887 36.0795 190.522 35.9688C187.795 35.6226 184.847 35.3339 182.869 33.1366Z" fill="url(#paint1_linear_4_390)"/>
<path d="M185.906 42.8512C183.753 43.8101 181.849 42.1938 181.004 40.2963C180.124 38.3193 180.232 35.9023 182.386 34.9434C185.113 33.7291 187.879 34.6539 190.529 35.466C190.907 35.5144 191.183 36.1349 190.965 36.448C189.793 38.9341 188.608 41.6486 185.906 42.8512Z" fill="url(#paint2_linear_4_390)"/>
<path d="M196.079 42.7522C196.326 45.0967 194.2 46.4081 192.135 46.6252C189.982 46.8514 187.717 46.0015 187.471 43.657C187.159 40.6878 188.893 38.3431 190.484 36.0741C190.647 35.7288 191.322 35.6583 191.553 35.9625C193.555 37.8452 195.77 39.8116 196.079 42.7522Z" fill="url(#paint3_linear_4_390)"/>
<path d="M199.116 33.027C201.422 33.5171 202.012 35.9439 201.581 37.9756C201.131 40.0923 199.622 41.9841 197.316 41.494C194.396 40.8733 192.702 38.4993 191.036 36.2849C190.758 36.0231 190.9 35.359 191.26 35.234C193.669 33.9115 196.224 32.4122 199.116 33.027Z" fill="url(#paint4_linear_4_390)"/>
<g style="mix-blend-mode:multiply">
<path d="M192.303 32.5072C192.63 32.079 193.3 32.4658 193.093 32.9633L192.88 33.4742C192.731 33.8322 193.065 34.2026 193.437 34.0918L193.967 33.9336C194.483 33.7796 194.798 34.4864 194.338 34.767L193.865 35.0553C193.534 35.2573 193.587 35.7531 193.952 35.8818L194.474 36.0656C194.983 36.2445 194.822 37.0012 194.285 36.9579L193.733 36.9135C193.347 36.8823 193.097 37.314 193.318 37.6332L193.632 38.0887C193.938 38.5322 193.363 39.0499 192.954 38.6991L192.534 38.3389C192.239 38.0865 191.784 38.2893 191.775 38.677L191.761 39.2302C191.748 39.7689 190.979 39.8498 190.854 39.3256L190.726 38.7872C190.636 38.41 190.148 38.3063 189.913 38.6144L189.577 39.0541C189.249 39.4822 188.579 39.0954 188.787 38.5979L188.999 38.0871C189.148 37.7291 188.815 37.3586 188.443 37.4695L187.913 37.6276C187.396 37.7817 187.082 37.0749 187.542 36.7942L188.014 36.506C188.345 36.304 188.293 35.8082 187.927 35.6794L187.405 35.4957C186.897 35.3168 187.058 34.56 187.595 34.6033L188.147 34.6478C188.533 34.6789 188.782 34.2472 188.562 33.928L188.248 33.4726C187.942 33.029 188.517 32.5114 188.926 32.8621L189.346 33.2223C189.64 33.4747 190.096 33.272 190.105 32.8843L190.119 32.331C190.132 31.7923 190.901 31.7115 191.026 32.2357L191.154 32.774C191.244 33.1513 191.732 33.2549 191.967 32.9468L192.303 32.5072Z" fill="#BAADBC"/>
<g style="mix-blend-mode:multiply">
<path fill-rule="evenodd" clip-rule="evenodd" d="M185.624 34.5429L196.208 36.7926L196.17 36.969L185.587 34.7193L185.624 34.5429Z" fill="#968F8F"/>
<path d="M195.932 37.6558C195.494 37.5626 195.214 37.1317 195.307 36.6933C195.4 36.2549 195.831 35.9751 196.27 36.0683C196.708 36.1614 196.988 36.5924 196.895 37.0308C196.801 37.4691 196.37 37.749 195.932 37.6558Z" fill="#968F8F"/>
<path d="M185.525 35.4437C185.086 35.3505 184.807 34.9196 184.9 34.4812C184.993 34.0428 185.424 33.7629 185.862 33.8561C186.301 33.9493 186.58 34.3802 186.487 34.8186C186.394 35.257 185.963 35.5368 185.525 35.4437Z" fill="#968F8F"/>
<path fill-rule="evenodd" clip-rule="evenodd" d="M187.344 31.6752L194.584 39.7161L194.45 39.8368L187.21 31.7958L187.344 31.6752Z" fill="#968F8F"/>
<path d="M193.854 40.2524C193.554 39.9194 193.581 39.4063 193.914 39.1064C194.247 38.8065 194.76 38.8334 195.06 39.1664C195.36 39.4995 195.333 40.0126 195 40.3125C194.667 40.6124 194.154 40.5855 193.854 40.2524Z" fill="#968F8F"/>
<path d="M186.734 32.3455C186.434 32.0124 186.461 31.4993 186.794 31.1994C187.127 30.8995 187.641 30.9264 187.941 31.2595C188.24 31.5926 188.214 32.1057 187.88 32.4056C187.547 32.7055 187.034 32.6786 186.734 32.3455Z" fill="#968F8F"/>
<path fill-rule="evenodd" clip-rule="evenodd" d="M190.421 30.3661L191.552 41.127L191.373 41.1458L190.242 30.3849L190.421 30.3661Z" fill="#968F8F"/>
<path d="M190.646 41.1316C190.599 40.6858 190.923 40.2865 191.368 40.2397C191.814 40.1928 192.213 40.5162 192.26 40.9619C192.307 41.4076 191.984 41.807 191.538 41.8538C191.092 41.9007 190.693 41.5773 190.646 41.1316Z" fill="#968F8F"/>
<path d="M189.534 30.55C189.487 30.1043 189.81 29.705 190.256 29.6581C190.702 29.6113 191.101 29.9346 191.148 30.3804C191.195 30.8261 190.872 31.2254 190.426 31.2723C189.98 31.3191 189.581 30.9958 189.534 30.55Z" fill="#968F8F"/>
<path fill-rule="evenodd" clip-rule="evenodd" d="M193.68 31.1158L188.27 40.4863L188.114 40.3962L193.524 31.0256L193.68 31.1158Z" fill="#968F8F"/>
<path d="M187.534 39.9574C187.758 39.5692 188.255 39.4363 188.643 39.6604C189.031 39.8844 189.164 40.3808 188.94 40.7689C188.716 41.157 188.22 41.29 187.831 41.0659C187.443 40.8418 187.31 40.3455 187.534 39.9574Z" fill="#968F8F"/>
<path d="M192.854 30.743C193.078 30.3549 193.575 30.2219 193.963 30.446C194.351 30.6701 194.484 31.1664 194.26 31.5545C194.036 31.9427 193.539 32.0757 193.151 31.8516C192.763 31.6275 192.63 31.1312 192.854 30.743Z" fill="#968F8F"/>
<path fill-rule="evenodd" clip-rule="evenodd" d="M195.876 33.6379L185.991 38.0388L185.918 37.8741L195.803 33.4731L195.876 33.6379Z" fill="#968F8F"/>
<path d="M185.707 37.1784C186.117 36.9961 186.596 37.1803 186.779 37.5897C186.961 37.9991 186.777 38.4788 186.367 38.6611C185.958 38.8434 185.478 38.6593 185.296 38.2498C185.114 37.8404 185.298 37.3607 185.707 37.1784Z" fill="#968F8F"/>
<path d="M195.427 32.8508C195.836 32.6685 196.316 32.8527 196.498 33.2621C196.681 33.6715 196.497 34.1512 196.087 34.3335C195.678 34.5158 195.198 34.3317 195.016 33.9222C194.833 33.5128 195.018 33.0331 195.427 32.8508Z" fill="#968F8F"/>
<path fill-rule="evenodd" clip-rule="evenodd" d="M196.17 36.969L185.587 34.7193L185.624 34.5429L196.208 36.7926L196.17 36.969Z" fill="#968F8F"/>
<path d="M185.862 33.8561C186.301 33.9493 186.58 34.3802 186.487 34.8186C186.394 35.257 185.963 35.5368 185.525 35.4437C185.086 35.3505 184.807 34.9196 184.9 34.4812C184.993 34.0428 185.424 33.7629 185.862 33.8561Z" fill="#968F8F"/>
<path d="M196.27 36.0683C196.708 36.1614 196.988 36.5924 196.895 37.0308C196.801 37.4691 196.37 37.749 195.932 37.6558C195.494 37.5626 195.214 37.1317 195.307 36.6933C195.4 36.2549 195.831 35.9751 196.27 36.0683Z" fill="#968F8F"/>
<path fill-rule="evenodd" clip-rule="evenodd" d="M194.45 39.8368L187.21 31.7958L187.344 31.6752L194.584 39.7161L194.45 39.8368Z" fill="#968F8F"/>
<path d="M187.941 31.2595C188.24 31.5926 188.214 32.1057 187.88 32.4056C187.547 32.7055 187.034 32.6786 186.734 32.3455C186.434 32.0124 186.461 31.4993 186.794 31.1994C187.127 30.8995 187.641 30.9264 187.941 31.2595Z" fill="#968F8F"/>
<path d="M195.06 39.1664C195.36 39.4995 195.333 40.0126 195 40.3125C194.667 40.6124 194.154 40.5855 193.854 40.2524C193.554 39.9194 193.581 39.4063 193.914 39.1064C194.247 38.8065 194.76 38.8334 195.06 39.1664Z" fill="#968F8F"/>
<path fill-rule="evenodd" clip-rule="evenodd" d="M191.373 41.1458L190.242 30.3849L190.421 30.3661L191.552 41.127L191.373 41.1458Z" fill="#968F8F"/>
<path d="M191.148 30.3804C191.195 30.8261 190.872 31.2254 190.426 31.2723C189.98 31.3191 189.581 30.9958 189.534 30.55C189.487 30.1043 189.81 29.705 190.256 29.6581C190.702 29.6113 191.101 29.9346 191.148 30.3804Z" fill="#968F8F"/>
<path d="M192.26 40.9619C192.307 41.4076 191.984 41.807 191.538 41.8538C191.092 41.9007 190.693 41.5773 190.646 41.1316C190.599 40.6858 190.923 40.2865 191.368 40.2397C191.814 40.1928 192.213 40.5162 192.26 40.9619Z" fill="#968F8F"/>
<path fill-rule="evenodd" clip-rule="evenodd" d="M188.114 40.3962L193.524 31.0256L193.68 31.1158L188.27 40.4863L188.114 40.3962Z" fill="#968F8F"/>
<path d="M194.26 31.5545C194.036 31.9427 193.539 32.0757 193.151 31.8516C192.763 31.6275 192.63 31.1312 192.854 30.743C193.078 30.3549 193.575 30.2219 193.963 30.446C194.351 30.6701 194.484 31.1664 194.26 31.5545Z" fill="#968F8F"/>
<path d="M188.94 40.7689C188.716 41.157 188.22 41.29 187.831 41.0659C187.443 40.8418 187.31 40.3455 187.534 39.9574C187.758 39.5692 188.255 39.4363 188.643 39.6604C189.031 39.8844 189.164 40.3808 188.94 40.7689Z" fill="#968F8F"/>
<path fill-rule="evenodd" clip-rule="evenodd" d="M185.918 37.8741L195.803 33.4731L195.876 33.6379L185.991 38.0388L185.918 37.8741Z" fill="#968F8F"/>
<path d="M196.087 34.3335C195.678 34.5158 195.198 34.3317 195.016 33.9222C194.833 33.5128 195.018 33.0331 195.427 32.8508C195.836 32.6685 196.316 32.8527 196.498 33.2621C196.681 33.6715 196.497 34.1512 196.087 34.3335Z" fill="#968F8F"/>
<path d="M186.367 38.6611C185.958 38.8434 185.478 38.6593 185.296 38.2498C185.114 37.8404 185.298 37.3607 185.707 37.1784C186.117 36.9961 186.596 37.1803 186.779 37.5897C186.961 37.9991 186.777 38.4788 186.367 38.6611Z" fill="#968F8F"/>
</g>
</g>
<path d="M258.199 68.749C258.374 68.963 258.689 68.9951 258.903 68.8206C259.117 68.6462 259.149 68.3312 258.975 68.1172L258.199 68.749ZM257.201 67.5242L258.199 68.749L258.975 68.1172L257.976 66.8924L257.201 67.5242Z" fill="#253368"/>
<path d="M259.609 67.4464C259.873 67.5277 260.152 67.3797 260.234 67.1158C260.315 66.8519 260.167 66.572 259.903 66.4907L259.609 67.4464ZM257.697 66.8574L259.609 67.4464L259.903 66.4907L257.992 65.9017L257.697 66.8574Z" fill="#253368"/>
<path d="M259.77 65.1272C260.014 64.9981 260.107 64.6955 259.978 64.4514C259.849 64.2073 259.547 64.1141 259.303 64.2432L259.77 65.1272ZM258.373 65.8659L259.77 65.1272L259.303 64.2432L257.906 64.9819L258.373 65.8659Z" fill="#253368"/>
<path d="M253.421 72.9326C253.443 73.2079 253.684 73.4415 253.96 73.4543C254.236 73.4672 254.442 73.2545 254.42 72.9792L253.421 72.9326ZM253.282 71.1941L253.421 72.9326L254.42 72.9792L254.281 71.2407L253.282 71.1941Z" fill="#253368"/>
<path d="M255.391 72.8937C255.548 73.1206 255.86 73.1771 256.087 73.0198C256.313 72.8625 256.37 72.5509 256.213 72.324L255.391 72.8937ZM254.084 71.0086L255.391 72.8937L256.213 72.324L254.906 70.4389L254.084 71.0086Z" fill="#253368"/>
<path d="M256.91 71.0669C257.178 71.1346 257.42 70.967 257.45 70.6925C257.481 70.4181 257.289 70.1408 257.021 70.0731L256.91 71.0669ZM255.262 70.6504L256.91 71.0669L257.021 70.0731L255.373 69.6565L255.262 70.6504Z" fill="#253368"/>
<path d="M247.467 72.8552C247.332 73.0959 247.386 73.444 247.587 73.6328C247.789 73.8217 248.062 73.7796 248.197 73.5389L247.467 72.8552ZM248.409 71.181L247.467 72.8552L248.197 73.5389L249.139 71.8647L248.409 71.181Z" fill="#253368"/>
<path d="M249.041 74.1337C249.03 74.4096 249.245 74.642 249.521 74.6526C249.797 74.6633 250.03 74.4483 250.04 74.1724L249.041 74.1337ZM249.142 71.5352L249.041 74.1337L250.04 74.1724L250.141 71.5739L249.142 71.5352Z" fill="#253368"/>
<path d="M251.382 73.4742C251.541 73.6994 251.814 73.7099 251.991 73.4977C252.168 73.2855 252.181 72.9309 252.022 72.7057L251.382 73.4742ZM250.321 71.9793L251.382 73.4742L252.022 72.7057L250.961 71.2108L250.321 71.9793Z" fill="#253368"/>
<path d="M215.744 72.0374C215.59 72.2671 215.652 72.5776 215.882 72.7307C216.112 72.8839 216.422 72.8218 216.576 72.5921L215.744 72.0374ZM216.62 70.7226L215.744 72.0374L216.576 72.5921L217.452 71.2773L216.62 70.7226Z" fill="#253368"/>
<path d="M217.403 73C217.403 73.2761 217.627 73.5 217.903 73.5C218.179 73.5 218.403 73.2761 218.403 73L217.403 73ZM217.403 71L217.403 73L218.403 73L218.403 71L217.403 71Z" fill="#253368"/>
<path d="M219.667 72.4709C219.862 72.6661 220.179 72.6661 220.374 72.4709C220.569 72.2756 220.569 71.959 220.374 71.7637L219.667 72.4709ZM218.55 71.3535L219.667 72.4709L220.374 71.7637L219.257 70.6464L218.55 71.3535Z" fill="#253368"/>
<path d="M210.337 68.7016C210.081 68.8036 209.929 69.1031 209.997 69.3705C210.066 69.6379 210.33 69.772 210.587 69.6699L210.337 68.7016ZM211.958 68.0572L210.337 68.7016L210.587 69.6699L212.207 69.0255L211.958 68.0572Z" fill="#253368"/>
<path d="M210.954 70.572C210.784 70.7892 210.822 71.1035 211.039 71.2741C211.256 71.4446 211.57 71.4068 211.741 71.1896L210.954 70.572ZM212.371 68.7681L210.954 70.572L211.741 71.1896L213.158 69.3858L212.371 68.7681Z" fill="#253368"/>
<path d="M213.148 71.4858C213.162 71.7616 213.393 71.9433 213.664 71.8917C213.936 71.8401 214.144 71.5747 214.13 71.299L213.148 71.4858ZM213.06 69.788L213.148 71.4858L214.13 71.299L214.043 69.6011L213.06 69.788Z" fill="#253368"/>
<path d="M208.659 62.9906C208.389 62.932 208.072 63.0858 207.951 63.334C207.83 63.5821 207.951 63.8308 208.221 63.8893L208.659 62.9906ZM210.537 63.3976L208.659 62.9906L208.221 63.8893L210.098 64.2964L210.537 63.3976Z" fill="#253368"/>
<path d="M207.9 64.8709C207.634 64.942 207.475 65.2159 207.546 65.4827C207.617 65.7496 207.891 65.9083 208.158 65.8372L207.9 64.8709ZM210.413 64.2017L207.9 64.8709L208.158 65.8372L210.671 65.1681L210.413 64.2017Z" fill="#253368"/>
<path d="M209.22 66.9123C209.052 67.1313 209.122 67.395 209.377 67.5014C209.632 67.6077 209.975 67.5164 210.143 67.2974L209.22 66.9123ZM210.336 65.4588L209.22 66.9123L210.143 67.2974L211.259 65.8439L210.336 65.4588Z" fill="#253368"/>
<path d="M206.159 78H213.159" stroke="#C25353" stroke-opacity="0.15" stroke-linecap="round"/>
<path d="M205.159 80H212.159" stroke="#C25353" stroke-opacity="0.15" stroke-linecap="round"/>
<path d="M204.159 82H211.159" stroke="#C25353" stroke-opacity="0.15" stroke-linecap="round"/>
<path d="M250.159 80H258.159" stroke="#C25353" stroke-opacity="0.15" stroke-linecap="round"/>
<path d="M249.159 82H259.159" stroke="#C25353" stroke-opacity="0.15" stroke-linecap="round"/>
<path d="M250.159 84H258.159" stroke="#C25353" stroke-opacity="0.15" stroke-linecap="round"/>
<path fill-rule="evenodd" clip-rule="evenodd" d="M312.775 958.968C310.373 822.452 258.745 534.684 251.327 460.568C243.913 386.452 270.291 361.351 295.583 373.58C320.875 385.811 328.442 556.816 328.442 556.816C328.442 556.816 330.184 590.284 336.785 628.397C360.649 766.177 343.899 960.928 343.899 960.928C343.899 960.928 339.273 973.614 325.273 971.924C311.276 970.234 312.775 958.968 312.775 958.968Z" fill="#FFC999"/>
<path fill-rule="evenodd" clip-rule="evenodd" d="M164.724 953.008C167.126 816.492 218.754 528.725 226.169 454.609C233.586 380.493 207.205 355.391 181.916 367.62C156.623 379.852 149.054 550.857 149.054 550.857C149.054 550.857 147.314 584.325 140.713 622.437C116.85 760.22 133.6 954.968 133.6 954.968C133.6 954.968 138.225 967.655 152.225 965.965C166.22 964.274 164.724 953.008 164.724 953.008Z" fill="#FFC999"/>
<path fill-rule="evenodd" clip-rule="evenodd" d="M180.036 338.566L181.721 328.35C181.721 328.35 227.232 328.389 281.54 328.724C281.911 333.936 283.403 340.27 283.403 340.27C283.403 340.27 244.163 353.43 180.036 338.566Z" fill="#002AB2"/>
<path fill-rule="evenodd" clip-rule="evenodd" d="M290.385 265.518L286.563 275.285C286.563 275.285 285.514 323.536 285.514 327.358C233.367 335.799 180.561 326.696 180.561 326.696L180.818 308.837L176.571 254.053L290.385 265.518Z" fill="white"/>
<path d="M289.595 264.785C289.766 264.348 290.258 264.133 290.695 264.304C291.083 264.456 291.296 264.862 291.219 265.257L291.176 265.404L287.406 275.031L285.886 326.467C285.873 327.13 285.866 327.596 285.866 327.853C285.866 328.262 285.574 328.613 285.172 328.688C255.092 334.269 224.31 333.96 195.996 330.088C191.958 329.535 188.292 328.948 185.042 328.356L183.975 328.159C182.95 327.967 182.032 327.786 181.224 327.62L179.628 327.278C179.276 327.197 179.019 326.904 178.976 326.556L178.971 326.403L179.97 308.364C179.996 307.895 180.397 307.537 180.865 307.563C181.281 307.586 181.611 307.905 181.66 308.304L181.666 308.458L180.705 325.775L181.101 325.86C181.704 325.986 182.379 326.123 183.122 326.267L184.288 326.49C187.768 327.143 191.768 327.796 196.226 328.405C223.763 332.171 253.653 332.547 282.912 327.371L284.174 327.14L284.312 321.467L285.01 297.647L285.714 274.834L285.772 274.552L289.595 264.785Z" fill="black"/>
<path d="M222.661 82.0821C223.178 81.5656 224.015 81.5656 224.532 82.0821L224.802 82.3297C224.926 82.437 225.082 82.5676 225.271 82.7169C225.918 83.2276 226.677 83.741 227.54 84.2212C230.467 85.8488 233.806 86.6911 237.482 86.3345C238.209 86.264 238.856 86.7962 238.926 87.5232C238.997 88.2503 238.464 88.8968 237.737 88.9673C233.485 89.3798 229.622 88.4056 226.255 86.5328C224.547 85.5829 223.332 84.6235 222.661 83.9525C222.145 83.436 222.145 82.5986 222.661 82.0821Z" fill="#F5222D"/>
<path d="M238.933 61.4076C239.456 61.4449 239.862 61.8572 239.908 62.3627L239.909 62.5461C239.884 63.2453 240.022 64.4174 240.483 66.0105C241.225 68.5771 242.611 71.4585 244.806 74.6027C245.151 75.0969 245.012 75.7792 244.502 76.0995L243.133 76.9496C241.36 78.0392 239.797 78.9546 238.439 79.7094L237.939 79.9849C237.56 80.1924 237.214 80.3776 236.901 80.5415L235.831 81.0813C235.805 81.0939 235.782 81.1047 235.762 81.1137C235.234 81.3577 234.607 81.127 234.363 80.5983C234.119 80.0695 234.35 79.4431 234.879 79.1991L235.368 78.9586L236.237 78.5072C236.452 78.3927 236.682 78.2687 236.927 78.1347C238.187 77.4458 239.646 76.6032 241.307 75.594L242.452 74.8892L242.191 74.49C240.507 71.8767 239.346 69.4227 238.627 67.1583L238.457 66.5961C237.981 64.949 237.801 63.6462 237.798 62.7325L237.806 62.3844C237.847 61.8036 238.352 61.3662 238.933 61.4076Z" fill="#DD936F"/>
<path fill-rule="evenodd" clip-rule="evenodd" d="M243.176 308.982C243.176 308.982 299.705 323.974 325.492 306.002C353.52 286.468 319.197 212.138 310.22 192.771C302.515 176.142 285.715 165.368 270.425 162.819C255.381 160.313 243.885 159.421 243.885 159.421L240.58 146.543C240.099 144.667 238.409 143.354 236.473 143.354H191.403C189.292 143.354 187.505 144.908 187.204 146.996L185.464 159.193C185.464 159.193 147.527 157.77 129.571 174.397C112.374 190.322 117.342 226.064 131.769 259.148C146.193 292.235 158.343 318.49 182.463 320.902C227.054 325.36 296.756 286.539 296.756 286.539C296.756 286.539 308.645 280.171 319.688 281.869C317.14 266.579 308.645 255.538 284.015 261.908L196.108 280.171" fill="white"/>
<path fill-rule="evenodd" clip-rule="evenodd" d="M297.179 235.366C297.179 235.366 301.428 249.379 292.616 260.74L293.571 275.391L231.142 309.155C231.142 309.155 299.086 324.819 326.236 308.983C346.599 297.104 340.747 263.319 325.119 229.273C325.119 229.273 312.828 225.55 297.179 235.366Z" fill="#FFC999"/>
<path fill-rule="evenodd" clip-rule="evenodd" d="M174.872 239.189L192.284 276.984L261.924 258.079C282.734 252.555 304.824 260.423 310.344 276.984C300.154 278.259 280.829 282.717 280.829 282.717C280.829 282.717 213.945 324.442 180.181 322.852C155.966 321.708 146.545 293.507 132.118 260.423C132.118 260.423 140.899 241.737 174.872 239.189Z" fill="#FFC999"/>
<path d="M288.262 198.844C288.731 198.844 289.111 199.224 289.111 199.693L289.098 200.876L289.071 202.048C289.054 202.657 289.032 203.302 289.004 203.975C288.893 206.647 288.708 209.32 288.433 211.872L288.303 212.98L288.698 213.389C291.371 216.218 293.502 219.224 295.125 222.386L295.521 223.18C300.309 233.105 299.996 243.677 296.604 253.655C296.06 255.256 295.477 256.701 294.893 257.968L294.596 258.596L294.099 259.565C293.87 259.974 293.352 260.119 292.943 259.89C292.534 259.66 292.389 259.143 292.618 258.734L292.861 258.274C292.995 258.011 293.16 257.671 293.351 257.257C293.911 256.042 294.472 254.651 294.996 253.109C298.258 243.515 298.558 233.382 293.991 223.918C292.278 220.368 289.903 217.011 286.81 213.879C286.628 213.694 286.54 213.435 286.572 213.177C286.94 210.23 287.176 207.068 287.308 203.904L287.374 202.002L287.412 199.961L287.413 199.693C287.413 199.224 287.793 198.844 288.262 198.844Z" fill="black"/>
<path d="M225.761 158.98C226.23 158.98 226.61 159.36 226.61 159.829C226.61 160.246 226.31 160.593 225.914 160.665L225.761 160.678H185.179C184.71 160.678 184.33 160.298 184.33 159.829C184.33 159.412 184.63 159.066 185.026 158.994L185.179 158.98H225.761Z" fill="black"/>
<path d="M244.834 159.102C244.97 158.572 245.511 158.252 246.041 158.389C246.519 158.511 246.825 158.961 246.782 159.437L246.755 159.596L233.377 211.619C233.196 212.323 232.359 212.584 231.813 212.16L231.692 212.05L183.067 160.026C182.694 159.626 182.715 158.998 183.115 158.625C183.47 158.292 184.006 158.272 184.383 158.552L184.516 158.672L231.905 209.375L244.834 159.102Z" fill="black"/>
<path fill-rule="evenodd" clip-rule="evenodd" d="M246.497 217.165C250.998 224.755 248.967 234.274 241.969 238.426C234.965 242.578 225.64 239.789 221.14 232.202C216.64 224.612 218.667 215.093 225.669 210.941C232.673 206.789 241.995 209.575 246.497 217.165Z" fill="#464646"/>
<path fill-rule="evenodd" clip-rule="evenodd" d="M248.112 217.128C252.615 224.719 250.585 234.237 243.583 238.386C236.582 242.538 227.257 239.752 222.757 232.162C218.257 224.572 220.285 215.056 227.286 210.904C234.288 206.752 243.612 209.538 248.112 217.128Z" fill="black"/>
<path fill-rule="evenodd" clip-rule="evenodd" d="M245.256 218.45C248.749 224.342 247.174 231.734 241.737 234.957C236.303 238.18 229.063 236.017 225.57 230.125C222.075 224.23 223.647 216.841 229.084 213.618C234.521 210.392 241.76 212.558 245.256 218.45Z" fill="#002AB2"/>
<path d="M213.679 115.046C213.957 114.535 214.597 114.346 215.109 114.624C220.876 117.761 226.853 119.338 232.85 119.42C233.432 119.428 233.898 119.906 233.89 120.488C233.882 121.071 233.404 121.536 232.821 121.528C226.48 121.442 220.168 119.777 214.101 116.476C213.59 116.198 213.4 115.558 213.679 115.046Z" fill="#DD936F"/>
<path fill-rule="evenodd" clip-rule="evenodd" d="M222.938 268.506C222.938 268.506 197.509 247.201 181.882 248.319C167.016 249.381 158.099 261.484 160.645 268.279C160.645 268.279 157.251 274.226 162.769 276.136C162.026 280.489 168.29 280.17 168.29 280.17C168.29 280.17 167.23 282.93 171.688 283.566C176.147 284.204 181.071 275.071 192.645 276.949L222.938 268.506Z" fill="#FFC999"/>
<path d="M181.245 246.709C174.282 247.206 166.809 252.166 161.44 258.793C159.187 261.574 157.635 264.313 157.198 266.319L157.145 266.589C156.86 268.269 157.436 269.471 158.671 269.865L158.748 269.886L158.652 270.109C158.304 270.962 158.135 271.829 158.224 272.689L158.266 272.993C158.495 274.291 159.33 275.359 160.772 276.108L161.094 276.263L161.094 276.335C161.109 278.41 162.506 279.725 164.662 280.316L165.118 280.429C165.574 280.53 166.026 280.595 166.46 280.632L166.58 280.639L166.588 280.725C166.638 281.117 166.765 281.514 166.99 281.903C167.639 283.024 168.958 283.763 170.981 284.052C172.107 284.213 173.222 283.93 174.543 283.245L174.946 283.028C175.767 282.57 178.897 280.503 178.934 280.48C183.3 277.722 186.998 276.633 191.918 277.432C192.062 277.455 192.209 277.449 192.35 277.412L223.809 269.283C224.647 269.067 224.882 267.99 224.211 267.444L223.076 266.547L221.924 265.661C221.318 265.2 220.667 264.712 219.976 264.203C216.685 261.78 213.147 259.357 209.496 257.094C205.282 254.482 201.186 252.254 197.307 250.528C191.369 247.886 186.154 246.514 181.829 246.677L181.245 246.709ZM196.45 252.455C200.233 254.138 204.247 256.322 208.385 258.887C211.985 261.118 215.477 263.509 218.725 265.901L220.242 267.032L221.216 267.774L192.03 275.316L192.256 275.35C186.965 274.492 182.895 275.597 178.355 278.357L177.808 278.697C177.71 278.758 174.657 280.774 173.917 281.188C172.781 281.823 171.968 282.063 171.279 281.964C169.845 281.76 169.103 281.343 168.815 280.847C168.696 280.641 168.659 280.415 168.679 280.198L168.715 279.99C168.969 279.329 168.513 278.628 167.826 278.563L167.63 278.56C166.934 278.579 166.048 278.51 165.22 278.283C163.689 277.863 163.018 277.124 163.252 275.756C163.339 275.247 163.046 274.75 162.558 274.581C161.039 274.055 160.411 273.35 160.321 272.474C160.258 271.852 160.463 271.116 160.859 270.365C161.075 269.955 161.289 269.643 161.417 269.484C162.05 268.699 161.325 267.558 160.345 267.798L159.965 267.882C159.12 268.041 159.034 267.799 159.258 266.768C159.612 265.142 161.014 262.669 163.079 260.121C168.114 253.905 175.11 249.261 181.395 248.812C185.419 248.525 190.529 249.821 196.45 252.455Z" fill="#DD936F"/>
<path d="M181.114 254.067C181.692 253.995 182.219 254.405 182.291 254.982C182.363 255.56 181.953 256.087 181.375 256.159C177.365 256.661 173.019 258.949 168.646 262.463C166.875 263.886 165.222 265.413 163.734 266.94L162.998 267.71L162.108 268.69C162.003 268.81 161.926 268.899 161.878 268.956C161.503 269.402 160.838 269.461 160.392 269.086C159.946 268.712 159.888 268.047 160.262 267.601L160.785 267.004C161.201 266.54 161.683 266.024 162.224 265.469C163.768 263.884 165.482 262.3 167.326 260.819C171.976 257.083 176.64 254.626 181.114 254.067Z" fill="#DD936F"/>
<path d="M188.127 259.76C188.709 259.741 189.197 260.197 189.216 260.779C189.235 261.361 188.779 261.848 188.197 261.868C187.845 261.879 187.49 261.902 187.131 261.936C182.154 262.407 176.745 264.957 171.283 268.925C169.13 270.488 167.12 272.166 165.309 273.842C164.834 274.282 164.399 274.698 164.006 275.083L163.115 275.984C163.088 276.013 163.064 276.038 163.045 276.059C162.648 276.485 161.981 276.508 161.555 276.111C161.129 275.714 161.105 275.047 161.502 274.621L162.134 273.971L162.948 273.17C163.239 272.89 163.549 272.598 163.876 272.295C165.745 270.565 167.819 268.835 170.043 267.219C175.783 263.05 181.509 260.35 186.932 259.837C187.333 259.799 187.732 259.773 188.127 259.76Z" fill="#DD936F"/>
<path d="M188.095 266.464C188.676 266.427 189.177 266.868 189.214 267.45C189.251 268.031 188.81 268.532 188.228 268.569C186.429 268.683 184.192 269.456 181.637 270.794C179.837 271.737 177.924 272.936 175.949 274.329C174.124 275.617 172.347 276.999 170.691 278.381L169.865 279.079L168.574 280.213C168.145 280.607 167.478 280.579 167.084 280.15C166.691 279.721 166.719 279.053 167.148 278.66L167.739 278.132L168.493 277.478C168.76 277.249 169.043 277.01 169.34 276.762C171.037 275.346 172.858 273.93 174.733 272.607C176.779 271.163 178.768 269.916 180.659 268.926C183.453 267.463 185.947 266.601 188.095 266.464Z" fill="#DD936F"/>
<path d="M164.781 211.593C165.174 211.453 165.601 211.62 165.802 211.969L165.866 212.108L175.248 238.478C175.439 239.015 175.058 239.584 174.489 239.611L174 239.642C173.593 239.671 173.119 239.711 172.585 239.764C171.055 239.916 169.348 240.14 167.509 240.449C162.258 241.332 157.007 242.719 152.115 244.719C143.168 248.375 136.462 253.65 132.877 260.802C132.667 261.221 132.157 261.39 131.738 261.18C131.319 260.97 131.149 260.46 131.359 260.041C135.154 252.471 142.178 246.946 151.473 243.147C156.492 241.095 161.861 239.676 167.228 238.774C168.793 238.511 170.265 238.309 171.619 238.159L172.818 238.036L173.274 237.994L164.266 212.677C164.126 212.285 164.293 211.857 164.642 211.657L164.781 211.593Z" fill="black"/>
<path d="M305.045 230.65C311.586 227.825 318.531 226.673 325.389 228.167C325.847 228.267 326.138 228.719 326.038 229.178C325.938 229.636 325.486 229.926 325.028 229.826C318.563 228.417 311.96 229.513 305.719 232.209C304.455 232.755 303.29 233.333 302.24 233.916L301.624 234.266C300.906 234.684 300.409 235.005 300.156 235.183C299.773 235.453 299.243 235.361 298.973 234.977C298.703 234.594 298.796 234.064 299.179 233.794L299.602 233.512C299.937 233.296 300.327 233.056 300.77 232.799C302.031 232.065 303.464 231.333 305.045 230.65Z" fill="black"/>
<path d="M292.227 258.908C292.457 258.373 293.076 258.125 293.612 258.355C297.355 259.958 300.804 262.532 303.945 265.804C305.863 267.803 307.551 269.941 308.995 272.08C309.375 272.642 309.718 273.174 310.022 273.67L310.551 274.558C310.653 274.734 310.728 274.871 310.777 274.963C311.086 275.541 310.796 276.242 310.201 276.452L310.046 276.494L290.823 280.191L227.371 312.038C226.902 312.274 226.342 312.127 226.045 311.716L225.956 311.569C225.72 311.101 225.867 310.541 226.278 310.243L226.425 310.154L290.008 278.242L290.281 278.149L308.182 274.705L307.924 274.291C307.819 274.126 307.71 273.958 307.598 273.786L307.248 273.26C305.867 271.215 304.253 269.17 302.424 267.265C299.465 264.182 296.237 261.774 292.781 260.293C292.246 260.063 291.998 259.444 292.227 258.908Z" fill="#DD936F"/>
<path d="M180.779 338.054C180.953 337.534 181.515 337.254 182.034 337.428L183.101 337.765L184.039 338.046C184.698 338.24 185.426 338.447 186.218 338.665C189.621 339.598 193.516 340.532 197.84 341.404C225.271 346.936 254.473 347.352 282.009 339.319C282.535 339.165 283.086 339.467 283.239 339.993C283.392 340.519 283.091 341.069 282.565 341.222C254.677 349.359 225.167 348.938 197.448 343.348C193.078 342.467 189.139 341.522 185.694 340.577L184.535 340.254C183.981 340.096 183.464 339.945 182.986 339.802L181.66 339.392C181.555 339.358 181.47 339.331 181.405 339.309C180.886 339.135 180.606 338.573 180.779 338.054Z" fill="#253368"/>
<path d="M225.084 61.2697C225.787 61.2697 226.357 61.8395 226.357 62.5425C226.357 67.4331 222.674 71.4395 218.075 71.4395C213.477 71.4395 209.798 67.433 209.798 62.5425C209.798 61.8395 210.368 61.2697 211.071 61.2697C211.774 61.2697 212.343 61.8395 212.343 62.5425C212.343 66.0731 214.934 68.8937 218.075 68.8937C221.218 68.8937 223.811 66.0728 223.811 62.5425C223.811 61.8395 224.381 61.2697 225.084 61.2697Z" fill="#253368"/>
<path d="M257.193 62.1448C257.86 62.1448 258.4 62.6854 258.4 63.3523C258.4 68.1839 255.093 72.1838 250.888 72.1838C246.682 72.1838 243.375 68.1839 243.375 63.3523C243.375 62.6854 243.915 62.1448 244.582 62.1448C245.249 62.1448 245.79 62.6854 245.79 63.3523C245.79 66.9408 248.128 69.7689 250.888 69.7689C253.647 69.7689 255.985 66.9408 255.985 63.3523C255.985 62.6854 256.526 62.1448 257.193 62.1448Z" fill="#253368"/>
<path d="M210.703 47.5623C215.562 45.5116 220.706 45.7172 225.569 47.2792C226.966 47.7281 228.01 48.1816 228.608 48.4972C229.23 48.8253 229.468 49.5953 229.14 50.2171C228.812 50.8388 228.042 51.0768 227.42 50.7487L227.101 50.5934C227.002 50.5477 226.885 50.4951 226.75 50.4367C226.177 50.1876 225.52 49.9372 224.79 49.7029C220.456 48.3108 215.907 48.129 211.693 49.9077C210.924 50.2324 210.174 50.621 209.446 51.0765C208.85 51.4491 208.064 51.2679 207.692 50.6718C207.319 50.0757 207.5 49.2904 208.096 48.9178C208.94 48.3903 209.81 47.9393 210.703 47.5623Z" fill="#253368"/>
<path fill-rule="evenodd" clip-rule="evenodd" d="M279.307 338.035C301.653 339.524 356.285 480.006 376.894 530.227C374.343 540.42 358.271 558.536 358.271 558.536C358.271 558.536 360.105 566.605 361.232 571.453C342.363 587.345 305.614 596.285 305.614 596.285V603.237C247.01 631.048 167.813 605.963 167.813 605.963C167.813 605.963 166.322 604.474 167.316 599.011C140.561 599.011 82.8917 565.736 82.8917 565.736L90.8376 548.853L67 525.013C67 525.013 139.844 400.435 152.254 373.047C166.076 342.543 181.348 336.879 181.348 336.879C181.348 336.879 239.653 335.39 279.307 338.035Z" fill="#002AB2"/>
<path d="M153.509 416.323C153.744 415.828 154.336 415.618 154.83 415.854C155.275 416.066 155.49 416.567 155.356 417.025L155.299 417.176L85.1293 564.43L86.0118 565.064L86.7602 565.587C88.6493 566.897 90.8757 568.358 93.4249 569.932C100.716 574.434 109.125 578.938 118.539 583.142C133.652 589.891 149.877 595.204 167.008 598.536C167.545 598.64 167.896 599.161 167.792 599.699C167.687 600.236 167.167 600.587 166.629 600.483C149.343 597.12 132.975 591.76 117.73 584.952C108.233 580.711 99.7459 576.166 92.3829 571.619C90.09 570.203 88.053 568.877 86.2819 567.666L85.6302 567.217C85.2266 566.937 84.8554 566.676 84.5169 566.434L83.5733 565.75C83.4411 565.652 83.3435 565.579 83.2808 565.531C82.9547 565.282 82.8202 564.863 82.9268 564.479L82.9874 564.317L153.509 416.323Z" fill="black"/>
<path d="M296.077 403.411C296.536 403.231 297.048 403.417 297.291 403.828L297.362 403.973L363.152 572.084C363.322 572.517 363.168 573.009 362.783 573.268L362.321 573.572C361.946 573.816 361.504 574.098 360.996 574.416L359.7 575.216C358.572 575.903 357.328 576.639 355.973 577.414C350.559 580.511 344.496 583.608 337.926 586.498C327.503 591.083 316.802 594.706 306.07 597.007C305.535 597.121 305.007 596.78 304.893 596.245C304.778 595.709 305.119 595.182 305.654 595.067C316.245 592.798 326.821 589.217 337.127 584.683C343.63 581.822 349.632 578.757 354.988 575.692C356.861 574.621 358.519 573.626 359.944 572.734L361.011 572.056L295.515 404.696C295.335 404.237 295.521 403.725 295.932 403.482L296.077 403.411Z" fill="black"/>
<path d="M258.987 364.628C259.523 364.515 260.049 364.859 260.161 365.395L263.741 382.628C265.014 388.789 266.37 395.382 267.795 402.349L269.096 408.719C275.282 439.041 281.468 469.973 287.303 499.98L288.754 507.462C289.826 513.002 290.877 518.466 291.905 523.848L294.132 535.557C298.938 560.948 303.13 583.956 306.59 604.063C306.672 604.539 306.398 605.005 305.942 605.166C302.622 606.338 299.254 607.413 295.84 608.394C260.27 618.613 222.34 618.285 186.625 611.603C181.149 610.578 176.211 609.48 171.894 608.382L170.443 608.006C169.98 607.884 169.538 607.766 169.117 607.651L167.387 607.165C166.988 607.05 166.7 606.964 166.526 606.91C166.094 606.776 165.815 606.371 165.828 605.932L165.848 605.767L200.133 435.944C200.241 435.407 200.764 435.06 201.301 435.168C201.784 435.266 202.114 435.699 202.096 436.177L202.077 436.337L167.972 605.269L169.641 605.738C170.471 605.965 171.386 606.206 172.383 606.46C176.66 607.548 181.556 608.637 186.99 609.654C222.427 616.284 260.062 616.609 295.292 606.488C297.994 605.712 300.666 604.876 303.307 603.979L304.491 603.569L303.213 596.207C299.927 577.434 296.061 556.365 291.701 533.379L290.724 528.239C289.453 521.566 288.146 514.762 286.807 507.838C281.516 480.489 275.904 452.255 270.244 424.317L264.589 396.58L258.22 365.802C258.108 365.266 258.451 364.74 258.987 364.628Z" fill="black"/>
<path d="M230.673 367.838C231.165 367.866 231.554 368.246 231.606 368.721L231.611 368.882L222.937 532.514C222.908 533.061 222.442 533.481 221.895 533.453C221.403 533.426 221.013 533.045 220.961 532.57L220.957 532.409L229.63 368.777C229.659 368.23 230.126 367.81 230.673 367.838Z" fill="black"/>
<path d="M201.634 342.939C201.805 342.419 202.366 342.135 202.886 342.306C203.354 342.46 203.63 342.929 203.557 343.401L203.519 343.558L170.744 443.379C170.573 443.9 170.012 444.183 169.492 444.012C169.024 443.858 168.748 443.389 168.822 442.918L168.859 442.761L201.634 342.939Z" fill="black"/>
<path d="M234.771 227.645C234.8 227.905 234.74 228.121 234.593 228.294C234.456 228.465 234.29 228.561 234.098 228.582C233.943 228.599 233.799 228.57 233.664 228.497C233.538 228.413 233.466 228.29 233.448 228.126C233.43 227.962 233.462 227.807 233.544 227.662C233.634 227.505 233.743 227.386 233.871 227.304C233.657 227.22 233.429 227.191 233.188 227.217C232.783 227.261 232.448 227.459 232.184 227.81C231.928 228.15 231.824 228.537 231.872 228.971C231.937 229.568 232.179 230.001 232.598 230.267C233.017 230.534 233.521 230.635 234.109 230.571C234.833 230.492 235.399 230.269 235.807 229.903C236.216 229.536 236.384 229.016 236.31 228.341C236.262 227.897 236.071 227.528 235.736 227.232C235.41 226.926 235.028 226.685 234.589 226.509C234.15 226.332 233.711 226.151 233.271 225.964C232.831 225.778 232.442 225.518 232.103 225.184C231.774 224.849 231.583 224.441 231.53 223.959C231.454 223.255 231.647 222.702 232.111 222.3C232.583 221.888 233.2 221.64 233.962 221.557C234.617 221.486 235.189 221.58 235.675 221.839C236.171 222.087 236.453 222.53 236.522 223.166C236.571 223.61 236.474 224.02 236.232 224.398C236 224.774 235.648 224.988 235.175 225.04C234.934 225.066 234.721 225.031 234.534 224.934C234.347 224.827 234.242 224.668 234.219 224.456C234.202 224.302 234.242 224.175 234.339 224.077C234.444 223.968 234.574 223.905 234.728 223.888C234.853 223.875 234.994 223.913 235.15 224.003C235.316 224.093 235.451 224.21 235.554 224.355C235.78 224.008 235.874 223.666 235.838 223.328C235.791 222.904 235.592 222.594 235.239 222.399C234.885 222.193 234.486 222.115 234.042 222.163C233.531 222.219 233.098 222.403 232.741 222.715C232.385 223.027 232.232 223.414 232.282 223.877C232.319 224.214 232.498 224.512 232.819 224.77C233.149 225.026 233.534 225.248 233.974 225.434C234.424 225.619 234.869 225.815 235.311 226.02C235.763 226.225 236.155 226.509 236.487 226.873C236.829 227.235 237.027 227.667 237.082 228.169C237.18 229.066 236.978 229.766 236.477 230.269C235.975 230.772 235.252 231.076 234.307 231.179C233.488 231.268 232.782 231.145 232.189 230.809C231.595 230.464 231.254 229.882 231.164 229.062C231.095 228.426 231.236 227.884 231.587 227.436C231.948 226.987 232.49 226.723 233.213 226.644C233.56 226.606 233.894 226.672 234.215 226.842C234.545 227.001 234.73 227.269 234.771 227.645Z" fill="white"/>
<path d="M238.081 227.284C238.109 227.545 238.213 227.743 238.394 227.88C238.565 228.017 238.747 228.075 238.94 228.054C239.094 228.037 239.229 227.979 239.345 227.878C239.451 227.769 239.494 227.633 239.476 227.469C239.458 227.305 239.394 227.161 239.283 227.036C239.161 226.903 239.029 226.81 238.887 226.758C239.078 226.629 239.294 226.552 239.535 226.526C239.94 226.482 240.309 226.603 240.642 226.888C240.965 227.165 241.15 227.521 241.198 227.955C241.263 228.552 241.119 229.027 240.767 229.377C240.415 229.728 239.945 229.935 239.357 229.999C238.634 230.078 238.033 229.982 237.555 229.713C237.077 229.443 236.801 228.97 236.727 228.295C236.679 227.852 236.786 227.45 237.049 227.089C237.302 226.72 237.623 226.402 238.014 226.136C238.404 225.869 238.794 225.597 239.184 225.32C239.573 225.044 239.897 224.706 240.156 224.307C240.406 223.909 240.504 223.469 240.452 222.987C240.375 222.283 240.067 221.785 239.528 221.492C238.978 221.191 238.322 221.082 237.56 221.165C236.905 221.237 236.367 221.451 235.947 221.809C235.517 222.159 235.337 222.651 235.406 223.288C235.454 223.731 235.637 224.111 235.955 224.428C236.262 224.746 236.653 224.879 237.125 224.827C237.366 224.801 237.567 224.721 237.728 224.586C237.888 224.442 237.956 224.264 237.933 224.052C237.916 223.897 237.85 223.782 237.735 223.707C237.609 223.623 237.468 223.59 237.314 223.607C237.189 223.62 237.059 223.688 236.926 223.81C236.784 223.933 236.677 224.076 236.607 224.24C236.312 223.95 236.146 223.636 236.11 223.299C236.063 222.875 236.192 222.529 236.494 222.262C236.796 221.985 237.168 221.823 237.612 221.774C238.123 221.719 238.586 221.805 239.001 222.033C239.416 222.261 239.649 222.606 239.699 223.069C239.736 223.406 239.626 223.735 239.368 224.056C239.101 224.378 238.772 224.677 238.383 224.954C237.984 225.231 237.591 225.518 237.203 225.814C236.806 226.111 236.485 226.473 236.239 226.9C235.983 227.328 235.882 227.792 235.937 228.294C236.034 229.19 236.382 229.831 236.98 230.214C237.578 230.598 238.349 230.738 239.294 230.635C240.114 230.546 240.777 230.274 241.284 229.819C241.789 229.354 241.997 228.711 241.908 227.892C241.839 227.256 241.584 226.756 241.145 226.394C240.696 226.034 240.11 225.893 239.386 225.971C239.039 226.009 238.727 226.146 238.45 226.381C238.163 226.607 238.04 226.908 238.081 227.284Z" fill="white"/>
<path d="M238.377 215.469C238.57 215.521 238.712 215.626 238.803 215.784C238.895 215.943 238.915 216.118 238.863 216.311C238.805 216.53 238.685 216.684 238.505 216.775C238.324 216.867 238.135 216.886 237.937 216.833C237.739 216.78 237.594 216.677 237.501 216.523C237.408 216.37 237.388 216.197 237.439 216.005C237.491 215.812 237.603 215.661 237.778 215.552C237.959 215.438 238.158 215.411 238.377 215.469ZM238.239 215.859C238.14 215.833 238.047 215.838 237.959 215.876C237.877 215.91 237.822 215.979 237.795 216.083C237.744 216.271 237.826 216.393 238.04 216.45C238.138 216.477 238.231 216.474 238.318 216.441C238.405 216.408 238.462 216.34 238.49 216.236C238.541 216.043 238.458 215.918 238.239 215.859ZM237.239 220.947C237.12 220.848 237.08 220.728 237.117 220.588C237.144 220.489 237.201 220.412 237.288 220.357C237.375 220.303 237.471 220.289 237.575 220.317C237.674 220.343 237.749 220.406 237.801 220.503C237.853 220.601 237.865 220.702 237.837 220.806C237.773 221.045 237.587 221.21 237.278 221.3C236.97 221.391 236.68 221.399 236.409 221.327C236.201 221.271 236.041 221.17 235.93 221.023C235.824 220.877 235.8 220.698 235.857 220.484C235.919 220.25 236.079 219.964 236.337 219.626C236.596 219.282 236.85 218.96 237.098 218.658C237.347 218.351 237.491 218.127 237.528 217.987C237.565 217.851 237.515 217.766 237.38 217.729C237.265 217.699 237.111 217.702 236.917 217.739C236.728 217.778 236.596 217.832 236.522 217.901C236.579 217.939 236.621 217.989 236.649 218.052C236.682 218.117 236.689 218.183 236.671 218.251C236.649 218.334 236.601 218.399 236.527 218.446C236.453 218.494 236.377 218.507 236.299 218.486C236.106 218.434 236.052 218.252 236.135 217.94C236.201 217.695 236.369 217.525 236.64 217.431C236.915 217.337 237.186 217.326 237.452 217.397C237.629 217.445 237.762 217.53 237.851 217.655C237.941 217.779 237.961 217.932 237.912 218.115C237.88 218.234 237.74 218.445 237.492 218.747C237.25 219.05 237.002 219.371 236.749 219.711C236.498 220.045 236.344 220.319 236.287 220.533C236.223 220.772 236.303 220.922 236.527 220.982C236.808 221.057 237.045 221.045 237.239 220.947Z" fill="white"/>
<path d="M232.156 216.147C231.979 216.239 231.863 216.372 231.808 216.546C231.753 216.721 231.771 216.896 231.863 217.073C231.967 217.274 232.117 217.4 232.313 217.45C232.509 217.5 232.698 217.478 232.879 217.384C233.061 217.289 233.181 217.157 233.239 216.988C233.296 216.818 233.279 216.645 233.188 216.468C233.096 216.291 232.953 216.168 232.759 216.098C232.558 216.027 232.357 216.043 232.156 216.147ZM232.375 216.498C232.466 216.451 232.558 216.436 232.653 216.454C232.739 216.47 232.808 216.525 232.857 216.621C232.947 216.793 232.893 216.93 232.697 217.032C232.606 217.079 232.515 217.096 232.423 217.083C232.331 217.07 232.261 217.016 232.211 216.92C232.119 216.743 232.174 216.602 232.375 216.498ZM234.447 221.251C234.542 221.129 234.556 221.003 234.489 220.874C234.441 220.783 234.369 220.72 234.273 220.686C234.176 220.651 234.079 220.659 233.984 220.708C233.893 220.755 233.833 220.832 233.803 220.939C233.773 221.045 233.783 221.146 233.833 221.242C233.947 221.462 234.164 221.583 234.485 221.605C234.806 221.626 235.09 221.573 235.339 221.444C235.53 221.344 235.665 221.211 235.742 221.043C235.814 220.878 235.799 220.698 235.698 220.502C235.586 220.286 235.368 220.041 235.043 219.767C234.716 219.487 234.399 219.227 234.092 218.985C233.782 218.739 233.594 218.552 233.527 218.423C233.463 218.298 233.493 218.204 233.617 218.139C233.722 218.085 233.874 218.055 234.071 218.049C234.264 218.046 234.404 218.071 234.491 218.122C234.444 218.171 234.414 218.23 234.4 218.297C234.382 218.368 234.389 218.434 234.421 218.496C234.461 218.572 234.522 218.626 234.604 218.656C234.687 218.686 234.764 218.682 234.835 218.645C235.012 218.553 235.026 218.364 234.878 218.077C234.761 217.852 234.56 217.722 234.275 217.688C233.986 217.656 233.719 217.704 233.475 217.83C233.313 217.915 233.201 218.027 233.14 218.168C233.08 218.309 233.093 218.463 233.18 218.63C233.237 218.74 233.419 218.916 233.726 219.157C234.028 219.401 234.339 219.661 234.659 219.939C234.976 220.211 235.186 220.445 235.288 220.642C235.402 220.862 235.356 221.025 235.15 221.132C234.892 221.266 234.658 221.306 234.447 221.251Z" fill="white"/>
</g>
<defs>
<linearGradient id="paint0_linear_4_390" x1="196.353" y1="26.4117" x2="190.898" y2="35.8603" gradientUnits="userSpaceOnUse">
<stop stop-color="#002AB2"/>
<stop offset="1" stop-color="#002AB2" stop-opacity="0.65"/>
</linearGradient>
<linearGradient id="paint1_linear_4_390" x1="183.784" y1="27.6845" x2="191.084" y2="35.7925" gradientUnits="userSpaceOnUse">
<stop stop-color="#002AB2"/>
<stop offset="1" stop-color="#002AB2" stop-opacity="0.65"/>
</linearGradient>
<linearGradient id="paint2_linear_4_390" x1="181.004" y1="40.2963" x2="190.971" y2="35.8587" gradientUnits="userSpaceOnUse">
<stop stop-color="#002AB2"/>
<stop offset="1" stop-color="#002AB2" stop-opacity="0.65"/>
</linearGradient>
<linearGradient id="paint3_linear_4_390" x1="192.135" y1="46.6252" x2="190.994" y2="35.7747" gradientUnits="userSpaceOnUse">
<stop stop-color="#002AB2"/>
<stop offset="1" stop-color="#002AB2" stop-opacity="0.65"/>
</linearGradient>
<linearGradient id="paint4_linear_4_390" x1="201.581" y1="37.9756" x2="190.909" y2="35.7072" gradientUnits="userSpaceOnUse">
<stop stop-color="#002AB2"/>
<stop offset="1" stop-color="#002AB2" stop-opacity="0.65"/>
</linearGradient>
</defs>
</svg>
