<svg width="136" height="464" viewBox="0 0 136 464" fill="none" xmlns="http://www.w3.org/2000/svg">
<path fill-rule="evenodd" clip-rule="evenodd" d="M23.9934 56.5376C23.9934 56.5376 13.4773 54.0977 10.6986 71.8776C0.50919 77.8042 3.28793 95.5824 3.28793 95.5824C3.28793 95.5824 -1.82925 109.55 8.33656 116.705C9.15068 131.015 19.3165 128.413 19.3165 128.413C19.3165 128.413 21.7567 139.471 29.4834 134.918C37.8196 145.29 53.9739 138.847 53.9739 138.847C53.9739 138.847 63.2367 144.773 66.9409 138.847C75.2782 143.291 88.9625 144.665 88.9625 144.665C88.9625 144.665 95.0666 143.072 100.7 138.847C104.36 136.102 107.822 132.246 109.281 126.994C124.001 114.401 119.608 100.782 119.608 100.782C119.608 100.782 122.635 84.5347 119.607 78.2349C122.208 71.6494 113.292 60.5795 112.436 54.7381C111.378 47.5184 105.804 42.2274 105.804 42.2274C105.804 42.2274 108.842 33.4912 106.067 24.72C104.507 19.7871 100.041 13.6196 94.7708 11.9808C87.2487 -6.23251 60.7189 1.73492 60.7189 1.73492C60.7189 1.73492 45.2302 0.610805 41.3664 15.5721C29.3249 18.5346 35.0858 33.3366 34.1592 42.2274C23.3839 43.2023 23.9934 56.5376 23.9934 56.5376Z" fill="black"/>
<path fill-rule="evenodd" clip-rule="evenodd" d="M50.7513 25.0692C59.7583 26.6514 62.4947 19.8284 62.4947 19.8284C62.4947 19.8284 64.0645 12.2025 67.1622 16.1182C69.752 18.4361 72.5094 15.0932 74.7352 18.4361C76.2331 20.6852 74.7352 23.2024 77.3551 29.5813C79.0477 33.7025 76.5645 42.1716 76.5645 43.7025C76.5645 43.7025 75.9143 49.2024 79.4163 52.6006L81.2696 61.7026L61.9555 61.6729L62.577 51.1912C49.5642 51.1912 48.9289 33.2823 50.7513 25.0692Z" fill="#FFC999"/>
<path d="M83.6518 13.1607C83.2321 12.5958 83.0018 11.795 83.0018 10.9073C83.0018 9.6 83.85 9 85.0018 9C86.2018 9 87.0018 9.6 87.0018 10.9073C87.0018 11.7968 86.7572 12.5982 86.366 13.1607L85.3005 14.9144C85.1906 15.0954 84.814 15.0951 84.7046 14.914L83.6518 13.1607Z" fill="white"/>
<path d="M82.8586 15.6658C82.1916 15.8905 81.3588 15.862 80.5145 15.5877C79.2713 15.1837 78.9627 14.1916 79.3187 13.0962C79.6895 11.9549 80.5073 11.3795 81.7506 11.7834C82.5966 12.0583 83.2832 12.5386 83.6973 13.0845L85.0359 14.6398C85.174 14.8003 85.0574 15.1583 84.8514 15.2064L82.8586 15.6658Z" fill="white"/>
<path d="M85.0183 17.3507C85.0259 18.0545 84.7414 18.8377 84.2196 19.5559C83.4512 20.6135 82.4124 20.6003 81.4805 19.9233C80.5097 19.218 80.2152 18.2624 80.9836 17.2048C81.5064 16.4851 82.1754 15.9805 82.8225 15.7554L84.7153 14.9629C84.9106 14.8811 85.2151 15.1026 85.1971 15.3135L85.0183 17.3507Z" fill="white"/>
<path d="M87.2271 15.717C87.8987 15.9273 88.5558 16.4399 89.0776 17.158C89.8459 18.2156 89.5124 19.1996 88.5806 19.8766C87.6098 20.582 86.6099 20.5668 85.8415 19.5092C85.3186 18.7896 85.0454 17.9974 85.0313 17.3124L84.8625 15.2673C84.8451 15.0563 85.1499 14.8352 85.3449 14.9174L87.2271 15.717Z" fill="white"/>
<path d="M86.3444 13.1056C86.7519 12.5319 87.4424 12.0654 88.2867 11.7911C89.53 11.3871 90.3627 12.0084 90.7186 13.1038C91.0894 14.2451 90.766 15.1913 89.5227 15.5953C88.6768 15.8702 87.8389 15.8852 87.1831 15.687L85.186 15.2155C84.9799 15.1669 84.8638 14.8087 85.0022 14.6487L86.3444 13.1056Z" fill="white"/>
<g style="mix-blend-mode:multiply">
<path d="M83.8417 14.606C83.6241 15.2458 83.9663 15.9408 84.6061 16.1584C85.2458 16.376 85.9408 16.0337 86.1584 15.394C86.376 14.7543 86.0338 14.0593 85.394 13.8417C84.7543 13.6241 84.0593 13.9663 83.8417 14.606Z" fill="#002AB2"/>
<path fill-rule="evenodd" clip-rule="evenodd" d="M80.3371 14.8598L89.5127 14.9854L89.5106 15.1384L80.335 15.0127L80.3371 14.8598Z" fill="#002AB2"/>
<path d="M89.5849 15.2923C89.4583 15.2906 89.357 15.1865 89.3587 15.0598C89.3604 14.9331 89.4645 14.8318 89.5912 14.8336C89.7179 14.8353 89.8192 14.9394 89.8175 15.0661C89.8157 15.1928 89.7116 15.2941 89.5849 15.2923Z" fill="#002AB2"/>
<path d="M80.4093 15.1667C80.2826 15.165 80.1813 15.0609 80.1831 14.9342C80.1848 14.8075 80.2889 14.7062 80.4156 14.7079C80.5423 14.7097 80.6436 14.8138 80.6419 14.9405C80.6401 15.0671 80.536 15.1684 80.4093 15.1667Z" fill="#002AB2"/>
<path fill-rule="evenodd" clip-rule="evenodd" d="M81.3101 12.1456L88.6595 17.6406L88.5679 17.763L81.2186 12.2681L81.3101 12.1456Z" fill="#002AB2"/>
<path d="M88.5376 17.9313C88.4361 17.8555 88.4154 17.7117 88.4912 17.6102C88.5671 17.5087 88.7109 17.488 88.8123 17.5639C88.9138 17.6397 88.9346 17.7835 88.8587 17.885C88.7828 17.9864 88.6391 18.0072 88.5376 17.9313Z" fill="#002AB2"/>
<path d="M81.1882 12.4364C81.0868 12.3605 81.066 12.2168 81.1419 12.1153C81.2177 12.0138 81.3615 11.9931 81.463 12.0689C81.5644 12.1448 81.5852 12.2886 81.5093 12.39C81.4335 12.4915 81.2897 12.5123 81.1882 12.4364Z" fill="#002AB2"/>
<path fill-rule="evenodd" clip-rule="evenodd" d="M83.6927 10.5218L86.4087 19.2871L86.2626 19.3324L83.5466 10.567L83.6927 10.5218Z" fill="#002AB2"/>
<path d="M86.1391 19.4507C86.1016 19.3297 86.1693 19.2012 86.2904 19.1637C86.4114 19.1262 86.5399 19.1939 86.5774 19.3149C86.6149 19.4359 86.5472 19.5644 86.4261 19.6019C86.3051 19.6394 86.1766 19.5717 86.1391 19.4507Z" fill="#002AB2"/>
<path d="M83.4232 10.6854C83.3857 10.5643 83.4534 10.4358 83.5744 10.3983C83.6955 10.3608 83.824 10.4285 83.8615 10.5496C83.899 10.6706 83.8312 10.7991 83.7102 10.8366C83.5892 10.8741 83.4607 10.8064 83.4232 10.6854Z" fill="#002AB2"/>
<path fill-rule="evenodd" clip-rule="evenodd" d="M86.5748 10.6085L83.6199 19.2962L83.4751 19.2469L86.43 10.5592L86.5748 10.6085Z" fill="#002AB2"/>
<path d="M83.3056 19.2701C83.3464 19.1501 83.4768 19.086 83.5967 19.1268C83.7167 19.1676 83.7808 19.2979 83.74 19.4178C83.6992 19.5378 83.5689 19.6019 83.449 19.5611C83.329 19.5203 83.2648 19.39 83.3056 19.2701Z" fill="#002AB2"/>
<path d="M86.2606 10.5824C86.3014 10.4624 86.4317 10.3983 86.5516 10.4391C86.6716 10.4799 86.7357 10.6102 86.6949 10.7301C86.6541 10.8501 86.5238 10.9142 86.4039 10.8734C86.2839 10.8326 86.2198 10.7023 86.2606 10.5824Z" fill="#002AB2"/>
<path fill-rule="evenodd" clip-rule="evenodd" d="M88.8554 12.3727L81.3583 17.6643L81.2701 17.5394L88.7672 12.2477L88.8554 12.3727Z" fill="#002AB2"/>
<path d="M81.1195 17.4585C81.223 17.3854 81.3661 17.4101 81.4392 17.5136C81.5122 17.6171 81.4876 17.7603 81.384 17.8334C81.2805 17.9064 81.1374 17.8817 81.0643 17.7782C80.9913 17.6747 81.016 17.5316 81.1195 17.4585Z" fill="#002AB2"/>
<path d="M88.6165 12.1669C88.7201 12.0938 88.8632 12.1185 88.9363 12.222C89.0093 12.3255 88.9846 12.4687 88.8811 12.5417C88.7776 12.6148 88.6345 12.5901 88.5614 12.4866C88.4883 12.3831 88.513 12.2399 88.6165 12.1669Z" fill="#002AB2"/>
<path fill-rule="evenodd" clip-rule="evenodd" d="M89.6635 15.1404L80.4879 15.0148L80.49 14.8619L89.6656 14.9875L89.6635 15.1404Z" fill="#002AB2"/>
<path d="M80.4156 14.7079C80.5423 14.7097 80.6436 14.8138 80.6419 14.9405C80.6401 15.0671 80.536 15.1684 80.4093 15.1667C80.2826 15.165 80.1813 15.0609 80.1831 14.9342C80.1848 14.8075 80.2889 14.7062 80.4156 14.7079Z" fill="#002AB2"/>
<path d="M89.5912 14.8336C89.7179 14.8353 89.8192 14.9394 89.8175 15.0661C89.8157 15.1928 89.7116 15.2941 89.5849 15.2923C89.4583 15.2906 89.357 15.1865 89.3587 15.0598C89.3604 14.9331 89.4645 14.8318 89.5912 14.8336Z" fill="#002AB2"/>
<path fill-rule="evenodd" clip-rule="evenodd" d="M88.6904 17.8546L81.3411 12.3597L81.4326 12.2372L88.782 17.7321L88.6904 17.8546Z" fill="#002AB2"/>
<path d="M81.463 12.0689C81.5644 12.1448 81.5852 12.2886 81.5093 12.39C81.4335 12.4915 81.2897 12.5123 81.1882 12.4364C81.0868 12.3605 81.066 12.2168 81.1419 12.1153C81.2177 12.0138 81.3615 11.9931 81.463 12.0689Z" fill="#002AB2"/>
<path d="M88.8123 17.5639C88.9138 17.6397 88.9346 17.7835 88.8587 17.885C88.7828 17.9864 88.6391 18.0072 88.5376 17.9313C88.4361 17.8555 88.4154 17.7117 88.4912 17.6102C88.5671 17.5087 88.7109 17.488 88.8123 17.5639Z" fill="#002AB2"/>
<path fill-rule="evenodd" clip-rule="evenodd" d="M86.3078 19.4785L83.5919 10.7132L83.738 10.6679L86.4539 19.4332L86.3078 19.4785Z" fill="#002AB2"/>
<path d="M83.8615 10.5496C83.899 10.6706 83.8312 10.7991 83.7102 10.8366C83.5892 10.8741 83.4607 10.8064 83.4232 10.6854C83.3857 10.5643 83.4534 10.4358 83.5744 10.3983C83.6955 10.3608 83.824 10.4285 83.8615 10.5496Z" fill="#002AB2"/>
<path d="M86.5774 19.3149C86.6149 19.4359 86.5472 19.5644 86.4261 19.6019C86.3051 19.6394 86.1766 19.5717 86.1391 19.4507C86.1016 19.3297 86.1693 19.2012 86.2904 19.1637C86.4114 19.1262 86.5399 19.1939 86.5774 19.3149Z" fill="#002AB2"/>
<path fill-rule="evenodd" clip-rule="evenodd" d="M83.4258 19.3918L86.3807 10.7041L86.5255 10.7533L83.5706 19.441L83.4258 19.3918Z" fill="#002AB2"/>
<path d="M86.6949 10.7301C86.6541 10.8501 86.5238 10.9142 86.4039 10.8734C86.2839 10.8326 86.2198 10.7023 86.2606 10.5824C86.3014 10.4624 86.4317 10.3983 86.5516 10.4391C86.6716 10.4799 86.7357 10.6102 86.6949 10.7301Z" fill="#002AB2"/>
<path d="M83.74 19.4178C83.6992 19.5378 83.5689 19.6019 83.449 19.5611C83.329 19.5203 83.2648 19.39 83.3056 19.2701C83.3464 19.1501 83.4768 19.086 83.5967 19.1268C83.7167 19.1676 83.7808 19.2979 83.74 19.4178Z" fill="#002AB2"/>
<path fill-rule="evenodd" clip-rule="evenodd" d="M81.1452 17.6276L88.6422 12.3359L88.7304 12.4609L81.2334 17.7525L81.1452 17.6276Z" fill="#002AB2"/>
<path d="M88.8811 12.5417C88.7776 12.6148 88.6345 12.5901 88.5614 12.4866C88.4883 12.3831 88.513 12.2399 88.6165 12.1669C88.7201 12.0938 88.8632 12.1185 88.9363 12.222C89.0093 12.3255 88.9846 12.4687 88.8811 12.5417Z" fill="#002AB2"/>
<path d="M81.384 17.8334C81.2805 17.9064 81.1374 17.8817 81.0643 17.7782C80.9913 17.6747 81.016 17.5316 81.1195 17.4585C81.223 17.3854 81.3661 17.4101 81.4392 17.5136C81.5122 17.6171 81.4876 17.7603 81.384 17.8334Z" fill="#002AB2"/>
<circle cx="0.611764" cy="0.611764" r="0.611764" transform="matrix(-0.946736 -0.32201 -0.32201 0.946736 85.7762 14.6178)" fill="#002AB2"/>
</g>
<path fill-rule="evenodd" clip-rule="evenodd" d="M28.3629 417.652C29.4118 357.958 51.9583 232.127 55.1975 199.718C58.4356 167.31 46.9161 156.334 35.8708 161.681C24.8255 167.029 21.5212 241.804 21.5212 241.804C21.5212 241.804 20.7602 256.439 17.8775 273.104C7.45605 333.35 14.7708 418.508 14.7708 418.508C14.7708 418.508 16.7909 424.056 22.9049 423.317C29.0176 422.578 28.3629 417.652 28.3629 417.652Z" fill="#FFC999"/>
<path fill-rule="evenodd" clip-rule="evenodd" d="M15.1752 420.193C15.0369 420.804 12.9597 398.949 13.0602 392.505C21.681 393.646 29.6516 392.831 29.6516 392.831C29.6516 392.831 28.5136 417.749 28.8381 420.193C22.6579 423.939 15.1752 420.193 15.1752 420.193Z" fill="#597EF7"/>
<path fill-rule="evenodd" clip-rule="evenodd" d="M16.9461 449.763C18.0167 458.402 22.6579 462.973 27.4464 463.478C33.3752 464.105 39.832 462.431 40.8751 457.109C42.0657 451.034 38.9442 447.927 35.4547 439.24C31.9665 430.553 30.3017 423.124 29.0015 416.935C29.0015 416.935 24.5545 414.33 25.7474 421.821C26.714 427.887 29.0563 444.949 33.1765 446.142C29.1637 445.818 20.9223 448.966 20.9223 448.966C20.9223 448.966 23.8507 444.406 23.6336 442.885C23.4165 441.366 20.9931 425.791 20.8686 421.17C20.7452 416.601 16.785 417.152 14.8769 417.687C14.2828 417.853 13.9046 418.427 13.9765 419.04C14.1582 420.563 16.4388 445.673 16.9461 449.763Z" fill="#4E5C93"/>
<path fill-rule="evenodd" clip-rule="evenodd" d="M19.0784 426.87C19.0784 426.87 14.1321 416.502 19.0784 415.47C22.9826 414.655 26.7234 414.493 27.2112 415.47C27.3929 415.834 27.3746 419.215 28.6749 426.219C30.1945 434.395 34.0781 443.984 35.5075 445.927C37.7847 449.02 35.3441 449.184 29.814 450.649C24.284 452.115 22.3324 452.115 20.8676 449.184C19.404 446.252 19.404 433.222 19.0784 426.87Z" fill="#4E5C93"/>
<path d="M29.3762 429.755C29.2605 429.458 28.9258 429.31 28.6285 429.426C27.8956 429.712 27.0995 430.101 26.2486 430.581C25.4427 431.036 24.5987 431.568 23.7292 432.159C22.6918 432.865 21.6711 433.621 20.7101 434.376L20.3218 434.684C20.1976 434.784 20.0788 434.88 19.9657 434.972L19.4634 435.388C19.0241 435.762 19.3441 436.479 19.9158 436.401C21.0115 436.252 22.3313 436.326 23.8238 436.595C25.1827 436.841 26.6365 437.239 28.1267 437.747C28.6778 437.935 29.2136 438.131 29.7275 438.33L30.0815 438.47L29.8615 438.538C28.185 439.085 26.4812 440.04 24.7846 441.304L24.4852 441.53C23.4963 442.288 22.578 443.099 21.7528 443.91L21.4212 444.241C21.3686 444.295 21.3173 444.347 21.2673 444.399L20.9839 444.696C20.8491 444.84 20.755 444.945 20.7045 445.003C20.4945 445.243 20.5188 445.608 20.7589 445.819C20.999 446.029 21.3638 446.004 21.5739 445.764L21.7565 445.563L21.827 445.487C22.0386 445.261 22.2846 445.008 22.5619 444.735C23.3554 443.956 24.2387 443.176 25.1873 442.449C27.531 440.653 29.8714 439.483 32.0508 439.226C32.6277 439.158 32.7549 438.376 32.2293 438.129L31.9447 437.999L31.3806 437.753C31.312 437.724 31.2415 437.694 31.1691 437.664C30.3434 437.319 29.4437 436.974 28.4992 436.652C26.9582 436.126 25.4504 435.714 24.0289 435.457C23.3099 435.327 22.6246 435.239 21.9762 435.197L21.5647 435.176L21.9951 434.842C22.5729 434.399 23.1686 433.96 23.7724 433.535L24.3786 433.116C25.2231 432.541 26.0404 432.027 26.8161 431.589C27.6223 431.133 28.3704 430.768 29.0472 430.504C29.3445 430.388 29.4918 430.053 29.3762 429.755Z" fill="#CCD7EE"/>
<path d="M23.7252 430.847C22.1834 430.661 20.8309 430.671 19.7134 430.92C19.402 430.989 19.2057 431.298 19.2748 431.61C19.344 431.922 19.6526 432.118 19.9639 432.049C20.9347 431.833 22.164 431.824 23.5871 431.996C24.7632 432.137 26.0239 432.396 27.3121 432.738C27.7409 432.852 28.1566 432.97 28.5541 433.091L28.6648 433.125L28.4823 433.211C27.1467 433.86 25.8474 434.681 24.5925 435.64L24.2173 435.932C23.028 436.874 21.951 437.882 21.0043 438.891C20.7388 439.174 20.4986 439.441 20.285 439.688L19.9937 440.032C19.9134 440.129 19.8542 440.203 19.8169 440.251C19.5349 440.614 19.7697 441.133 20.2063 441.181L20.3072 441.184L20.4266 441.182C21.1421 441.174 22.086 441.185 23.1742 441.232C24.7998 441.302 26.4031 441.438 27.8986 441.657C30.5242 442.04 32.5825 442.642 33.8313 443.476C34.0967 443.653 34.4553 443.581 34.6323 443.315C34.8092 443.05 34.7376 442.691 34.4722 442.514C33.0466 441.562 30.8467 440.918 28.0652 440.512C26.5269 440.288 24.8858 440.148 23.2238 440.076L22.5755 440.052C22.3658 440.045 22.1625 440.04 21.9664 440.035L21.529 440.027L21.66 439.883L21.846 439.683C22.756 438.714 23.7921 437.744 24.9339 436.839C26.714 435.43 28.5827 434.314 30.503 433.602C31.0052 433.416 31.0057 432.705 30.5038 432.518L30.0019 432.341C29.9019 432.307 29.7956 432.272 29.6836 432.235C29.0446 432.025 28.3455 431.816 27.608 431.62C26.2717 431.265 24.9601 430.996 23.7252 430.847Z" fill="#CCD7EE"/>
<path fill-rule="evenodd" clip-rule="evenodd" d="M17.4527 451.464C17.4527 451.464 29.1641 441.691 39.8998 448.858C42.5837 454.848 41.031 458.409 39.7364 460.258C39.2005 461.023 38.1859 462.091 37.3084 462.408C34.6942 463.353 27.8399 465.25 22.9828 462.05C16.8026 457.978 17.4527 451.464 17.4527 451.464Z" fill="#CCD7EE"/>
<path d="M39.4116 448.931C39.3319 448.781 39.1461 448.724 38.9966 448.804C38.8471 448.884 38.7905 449.07 38.8702 449.22C40.2131 451.742 38.7607 455.112 36.801 456.419C35.3687 457.375 29.9708 458.3 25.7079 458.106C23.768 458.018 22.1764 456.79 20.9089 454.777C20.4411 454.034 20.0522 453.236 19.7389 452.438C19.6293 452.159 19.537 451.9 19.4617 451.668L19.3742 451.383C19.3294 451.219 19.1606 451.123 18.9972 451.168C18.8338 451.213 18.7377 451.382 18.7825 451.545L18.8514 451.774L18.8782 451.858C18.9572 452.101 19.0536 452.372 19.1679 452.663C19.4943 453.495 19.8998 454.327 20.3899 455.105C21.7538 457.271 23.5037 458.621 25.68 458.72C30.0614 458.919 35.5777 457.974 37.1413 456.931C39.3361 455.466 40.9266 451.776 39.4116 448.931Z" fill="#A3B5D6"/>
<path d="M13.6692 395.849C13.3573 395.782 13.0503 395.981 12.9836 396.293C12.9169 396.605 13.1156 396.913 13.4276 396.98L13.6309 397.021C13.7932 397.053 13.9826 397.088 14.1973 397.127L14.8355 397.235C15.2786 397.307 15.7563 397.378 16.2646 397.445C20.0966 397.954 24.0789 398.093 27.8126 397.632C28.1899 397.585 28.5623 397.532 28.9296 397.474C29.2446 397.423 29.4591 397.127 29.4087 396.811C29.3583 396.496 29.0621 396.281 28.7471 396.332C28.3937 396.388 28.035 396.439 27.6713 396.484C24.0487 396.931 20.1592 396.796 16.4166 396.299C15.7955 396.216 15.222 396.129 14.7037 396.041L14.3993 395.988C14.0441 395.925 13.7964 395.876 13.6692 395.849Z" fill="#CCD7EE"/>
<path d="M23.5463 424.393C23.2806 424.383 23.0503 424.555 22.974 424.797L22.964 424.841L22.9131 424.854L22.8402 424.884L22.4312 425.086L21.9216 425.345C21.7433 425.436 21.5571 425.533 21.3639 425.635C20.2599 426.217 19.1556 426.838 18.123 427.475C17.116 428.096 16.23 428.7 15.4969 429.276C14.53 430.037 13.8461 430.735 13.4841 431.384C12.9986 432.254 13.0871 433.095 13.847 433.68C15.1014 434.647 16.7667 433.957 18.7477 432.153C19.4822 431.484 20.252 430.666 21.0437 429.731C21.8265 428.806 22.5892 427.818 23.3021 426.83L23.4847 426.575L23.8514 426.052L24.3164 426.445C25.0577 427.062 25.8453 427.68 26.6468 428.257C27.328 428.747 27.9896 429.187 28.6218 429.563L28.9891 429.776C31.7725 431.351 33.8036 431.538 34.4829 429.497C35.2509 427.19 32.9578 425.82 28.892 425.019C27.7204 424.788 26.4695 424.621 25.2192 424.508L24.588 424.456L24.011 424.417C23.791 424.404 23.6326 424.396 23.5463 424.393ZM22.0538 426.578L21.9422 426.731C21.3705 427.502 20.7719 428.263 20.1627 428.983C19.4008 429.882 18.6639 430.666 17.9703 431.297C16.3738 432.751 15.1782 433.246 14.5512 432.763C14.2879 432.561 14.2662 432.354 14.4927 431.948C14.7636 431.462 15.3536 430.86 16.2105 430.186C16.905 429.64 17.7563 429.06 18.7287 428.46C19.5353 427.963 20.3894 427.473 21.253 427.005L21.902 426.658L22.0538 426.578ZM25.192 425.668L25.7215 425.719C26.7304 425.825 27.7291 425.968 28.6689 426.154L29.1427 426.252C32.2259 426.923 33.7886 427.925 33.387 429.131C33.036 430.186 31.6029 429.991 29.2119 428.569C28.6109 428.211 27.9768 427.79 27.3212 427.318C26.6991 426.87 26.0839 426.395 25.4932 425.916L25.192 425.668Z" fill="#CCD7EE"/>
<path d="M18.7011 419.183C18.4099 419.209 18.189 419.448 18.1764 419.732L18.1783 419.811L18.6125 424.588C18.6414 424.906 18.9223 425.141 19.24 425.112C19.5312 425.085 19.7522 424.847 19.7647 424.562L19.7629 424.484L19.3287 419.706C19.3022 419.415 19.0639 419.193 18.7797 419.181L18.7011 419.183Z" fill="#CCD7EE"/>
<path d="M26.2921 417.663C26.001 417.689 25.78 417.928 25.7674 418.212L25.7693 418.291L26.2035 423.069C26.2324 423.387 26.5133 423.621 26.831 423.592C27.1222 423.565 27.3432 423.327 27.3557 423.042L27.3539 422.964L26.9197 418.186C26.8932 417.895 26.6549 417.673 26.3707 417.661L26.2921 417.663Z" fill="#CCD7EE"/>
<path fill-rule="evenodd" clip-rule="evenodd" d="M93.0178 415.046C91.9689 355.352 69.4225 229.521 66.1844 197.112C62.9452 164.704 74.4658 153.728 85.51 159.075C96.5553 164.423 99.8607 239.198 99.8607 239.198C99.8607 239.198 100.621 253.833 103.503 270.498C113.925 330.746 106.61 415.902 106.61 415.902C106.61 415.902 104.59 421.45 98.4759 420.711C92.3643 419.972 93.0178 415.046 93.0178 415.046Z" fill="#FFC999"/>
<path fill-rule="evenodd" clip-rule="evenodd" d="M86.3309 146.371L85.5951 141.903C85.5951 141.903 65.72 141.92 42.0035 142.067C41.8412 144.346 41.1899 147.116 41.1899 147.116C41.1899 147.116 58.3263 152.87 86.3309 146.371Z" fill="#002AB2"/>
<path fill-rule="evenodd" clip-rule="evenodd" d="M38.1406 114.429L39.8099 118.7C39.8099 118.7 40.268 139.798 40.268 141.47C63.0408 145.161 86.1014 141.18 86.1014 141.18L85.9895 133.371L87.8439 109.416L38.1406 114.429Z" fill="white"/>
<path d="M38.4857 114.109C38.4111 113.918 38.196 113.823 38.0053 113.898C37.8358 113.965 37.7427 114.142 37.7765 114.315L37.7952 114.379L39.4414 118.589L40.1053 141.08C40.1112 141.37 40.1143 141.574 40.1143 141.686C40.1143 141.865 40.2417 142.018 40.4174 142.051C53.5534 144.492 66.996 144.357 79.3611 142.663C81.1245 142.422 82.7253 142.165 84.1445 141.906L84.6108 141.82C85.0581 141.736 85.4591 141.657 85.8121 141.584L86.509 141.435C86.6629 141.399 86.7749 141.271 86.7938 141.119L86.796 141.052L86.3595 133.164C86.3482 132.959 86.1733 132.803 85.9688 132.814C85.7871 132.824 85.6432 132.964 85.6214 133.138L85.6192 133.205L86.0388 140.777L85.8658 140.815C85.6023 140.87 85.3078 140.93 84.9833 140.993L84.4741 141.09C82.9541 141.376 81.2075 141.661 79.2606 141.928C67.235 143.574 54.1818 143.739 41.4041 141.476L40.8529 141.375L40.7928 138.894L40.4882 128.478L40.1803 118.503L40.155 118.379L38.4857 114.109Z" fill="black"/>
<path d="M67.7161 34.2189C67.4905 33.993 67.1248 33.993 66.8993 34.2189L66.7813 34.3271C66.7273 34.3741 66.6588 34.4312 66.5763 34.4964C66.2939 34.7197 65.9624 34.9443 65.5854 35.1542C64.3074 35.8659 62.849 36.2342 61.2438 36.0783C60.9263 36.0475 60.6439 36.2802 60.6132 36.5981C60.5824 36.916 60.8148 37.1987 61.1323 37.2295C62.9895 37.4099 64.6764 36.9839 66.1468 36.165C66.8927 35.7496 67.4231 35.3302 67.7161 35.0367C67.9416 34.8109 67.9416 34.4447 67.7161 34.2189Z" fill="#F5222D"/>
<path d="M60.6103 25.1786C60.382 25.1949 60.2044 25.3752 60.1844 25.5962L60.1838 25.6764C60.1949 25.9822 60.1346 26.4947 59.9334 27.1913C59.6094 28.3136 59.0038 29.5735 58.0454 30.9484C57.8947 31.1645 57.9553 31.4628 58.1783 31.6029L58.776 31.9746C59.5501 32.451 60.2328 32.8513 60.8259 33.1813L61.0442 33.3018C61.2099 33.3926 61.361 33.4736 61.4977 33.5452L61.9646 33.7812C61.9762 33.7868 61.9862 33.7915 61.9948 33.7954C62.2257 33.9021 62.4992 33.8012 62.6058 33.57C62.7124 33.3388 62.6116 33.0649 62.3807 32.9582L62.1669 32.8531L61.7875 32.6557C61.6935 32.6056 61.593 32.5514 61.486 32.4928C60.9359 32.1916 60.2989 31.8231 59.5734 31.3818L59.0732 31.0736L59.1874 30.8991C59.9228 29.7564 60.4298 28.6833 60.7437 27.6932L60.8181 27.4474C61.0261 26.7272 61.1043 26.1575 61.1059 25.7579L61.1023 25.6057C61.0842 25.3518 60.8639 25.1605 60.6103 25.1786Z" fill="#DD936F"/>
<path fill-rule="evenodd" clip-rule="evenodd" d="M58.7573 133.434C58.7573 133.434 34.0707 139.99 22.8095 132.131C10.569 123.59 25.5585 91.0877 29.4787 82.6195C32.8436 75.348 40.1801 70.6368 46.8573 69.5225C53.4271 68.4265 58.4476 68.0364 58.4476 68.0364L59.8907 62.4054C60.1009 61.5851 60.8391 61.0108 61.6846 61.0108H81.3666C82.2887 61.0108 83.069 61.6904 83.2004 62.6033L83.9603 67.9369C83.9603 67.9369 100.528 67.3145 108.369 74.5849C115.879 81.5487 113.71 97.1775 107.409 111.644C101.11 126.111 95.8042 137.592 85.2708 138.647C65.7978 140.596 35.3584 123.621 35.3584 123.621C35.3584 123.621 30.1665 120.836 25.3437 121.579C26.4566 114.893 30.1665 110.065 40.9228 112.851L79.3123 120.836" fill="white"/>
<path fill-rule="evenodd" clip-rule="evenodd" d="M35.1737 101.245C35.1737 101.245 33.3181 107.372 37.1663 112.34L36.7493 118.746L64.0123 133.51C64.0123 133.51 34.3407 140.36 22.4842 133.435C13.5915 128.241 16.1475 113.468 22.9721 98.5804C22.9721 98.5804 28.3399 96.9524 35.1737 101.245Z" fill="#FFC999"/>
<path fill-rule="evenodd" clip-rule="evenodd" d="M88.5858 102.916L80.982 119.443L50.57 111.176C41.4819 108.761 31.8351 112.201 29.4243 119.443C33.8746 120 42.3137 121.95 42.3137 121.95C42.3137 121.95 71.5226 140.195 86.2676 139.499C96.8421 138.999 100.957 126.668 107.257 112.201C107.257 112.201 103.422 104.03 88.5858 102.916Z" fill="#FFC999"/>
<path d="M39.0679 85.2748C38.8631 85.2748 38.6971 85.4411 38.6971 85.6461L38.703 86.1634L38.7146 86.6758C38.7219 86.9424 38.7315 87.2241 38.7437 87.5184C38.7922 88.6869 38.8731 89.8556 38.9933 90.9715L39.05 91.4563L38.8775 91.635C37.7104 92.8718 36.7794 94.1865 36.0707 95.5692L35.8981 95.9164C33.8068 100.256 33.9436 104.879 35.4249 109.242C35.6624 109.942 35.9171 110.574 36.1722 111.128L36.3019 111.402L36.5188 111.826C36.619 112.005 36.845 112.069 37.0236 111.968C37.2021 111.868 37.2657 111.642 37.1655 111.463L37.0595 111.262C37.0012 111.147 36.9289 110.998 36.8457 110.817C36.601 110.286 36.3559 109.677 36.1269 109.003C34.7027 104.808 34.5716 100.377 36.5659 96.239C37.3141 94.6866 38.3514 93.2189 39.7019 91.8491C39.7817 91.7682 39.82 91.6551 39.806 91.5423C39.6454 90.2537 39.5421 88.8708 39.4846 87.4876L39.4559 86.6557L39.4392 85.7634L39.4387 85.6461C39.4387 85.4411 39.2727 85.2748 39.0679 85.2748Z" fill="black"/>
<path d="M66.3623 67.8439C66.1575 67.8439 65.9915 68.0101 65.9915 68.2151C65.9915 68.3973 66.1227 68.5489 66.2956 68.5804L66.3623 68.5863H84.0848C84.2896 68.5863 84.4556 68.4201 84.4556 68.2151C84.4556 68.0328 84.3244 67.8813 84.1515 67.8498L84.0848 67.8439H66.3623Z" fill="black"/>
<path d="M71.6389 48.633C71.5174 48.4093 71.2377 48.3266 71.0143 48.4483C68.4958 49.8202 65.8857 50.5096 63.2666 50.5454C63.0123 50.5489 62.809 50.7581 62.8125 51.0127C62.816 51.2673 63.0249 51.4708 63.2792 51.4674C66.0484 51.4295 68.8051 50.7014 71.4544 49.2583C71.6778 49.1366 71.7604 48.8566 71.6389 48.633Z" fill="#DD936F"/>
<path fill-rule="evenodd" clip-rule="evenodd" d="M67.5954 115.736C67.5954 115.736 78.7001 106.42 85.5247 106.908C92.0169 107.373 95.9108 112.665 94.799 115.636C94.799 115.636 96.281 118.237 93.8713 119.072C94.1958 120.976 91.4604 120.836 91.4604 120.836C91.4604 120.836 91.9232 122.043 89.9762 122.321C88.0293 122.6 85.8789 118.606 80.8242 119.428L67.5954 115.736Z" fill="#FFC999"/>
<path d="M85.8028 106.205C88.8438 106.422 92.1073 108.591 94.4518 111.489C95.4357 112.705 96.1137 113.902 96.3045 114.78L96.3274 114.897C96.452 115.632 96.2005 116.158 95.6612 116.33L95.6274 116.339L95.6693 116.437C95.8215 116.81 95.895 117.189 95.8565 117.565L95.8381 117.698C95.7378 118.265 95.3733 118.732 94.7434 119.06L94.6029 119.128L94.6031 119.159C94.5965 120.066 93.9861 120.641 93.0447 120.9L92.8455 120.949C92.6465 120.993 92.4489 121.022 92.2596 121.038L92.2073 121.041L92.2037 121.078C92.1818 121.25 92.1263 121.424 92.0281 121.594C91.7448 122.084 91.1688 122.407 90.2854 122.533C89.7934 122.604 89.3067 122.48 88.7295 122.181L88.5535 122.086C88.1953 121.885 86.8285 120.982 86.8123 120.971C84.9053 119.765 83.2905 119.29 81.1421 119.639C81.0792 119.649 81.0148 119.646 80.9531 119.63L67.2147 116.076C66.849 115.981 66.7464 115.51 67.0395 115.271L67.5348 114.879L68.0381 114.492C68.3029 114.29 68.587 114.077 68.8889 113.854C70.3259 112.795 71.8709 111.735 73.4655 110.746C75.3059 109.604 77.0944 108.629 78.7886 107.875C81.3818 106.72 83.6593 106.119 85.5477 106.191L85.8028 106.205ZM79.163 108.717C77.5107 109.453 75.7579 110.408 73.9507 111.53C72.3786 112.505 70.8533 113.551 69.4349 114.597L68.7728 115.091L68.3472 115.416L81.093 118.713L80.9945 118.729C83.3051 118.353 85.0824 118.836 87.0651 120.043L87.304 120.192C87.3468 120.219 88.6797 121.1 89.0031 121.281C89.4991 121.559 89.8543 121.664 90.1551 121.621C90.7813 121.531 91.1054 121.349 91.231 121.132C91.2831 121.042 91.2993 120.943 91.2904 120.848L91.2747 120.757C91.1639 120.468 91.3628 120.162 91.6632 120.133L91.7487 120.132C92.0524 120.14 92.4394 120.11 92.801 120.011C93.4699 119.827 93.7629 119.504 93.6604 118.906C93.6223 118.683 93.7506 118.466 93.9636 118.392C94.6268 118.162 94.9012 117.854 94.9404 117.471C94.9682 117.199 94.8787 116.877 94.7058 116.549C94.6115 116.37 94.5179 116.233 94.462 116.163C94.1853 115.82 94.5022 115.321 94.9301 115.426L95.096 115.463C95.4652 115.533 95.5028 115.427 95.4047 114.976C95.25 114.265 94.6377 113.183 93.7362 112.069C91.5371 109.351 88.4819 107.321 85.7372 107.124C83.9799 106.999 81.7483 107.565 79.163 108.717Z" fill="#DD936F"/>
<path d="M85.8602 109.422C85.6078 109.39 85.3777 109.57 85.3462 109.822C85.3146 110.075 85.4937 110.305 85.746 110.337C87.4975 110.556 89.3951 111.557 91.3048 113.093C92.0784 113.716 92.8004 114.383 93.4501 115.051L93.7714 115.388L94.1604 115.816C94.2062 115.869 94.2399 115.908 94.2608 115.933C94.4243 116.128 94.7147 116.153 94.9095 115.99C95.1043 115.826 95.1297 115.535 94.9662 115.34L94.738 115.079C94.5562 114.876 94.3459 114.65 94.1097 114.408C93.4354 113.715 92.6865 113.022 91.8816 112.374C89.851 110.741 87.8139 109.667 85.8602 109.422Z" fill="#DD936F"/>
<path d="M82.7974 111.911C82.5432 111.903 82.3303 112.102 82.3219 112.357C82.3134 112.611 82.5126 112.825 82.7668 112.833C82.9206 112.838 83.0758 112.848 83.2324 112.863C85.4058 113.069 87.7682 114.184 90.1534 115.919C91.0934 116.603 91.9714 117.336 92.7624 118.069C92.9698 118.261 93.1598 118.443 93.3312 118.612L93.7202 119.005C93.7322 119.018 93.7425 119.029 93.7511 119.038C93.9245 119.225 94.2158 119.235 94.4018 119.061C94.5879 118.888 94.5981 118.596 94.4247 118.41L94.1489 118.126L93.7931 117.775C93.6661 117.653 93.531 117.525 93.388 117.392C92.5718 116.636 91.6662 115.88 90.6946 115.173C88.1882 113.35 85.6875 112.17 83.3192 111.945C83.1441 111.928 82.9701 111.917 82.7974 111.911Z" fill="#DD936F"/>
<path d="M82.8117 114.843C82.5579 114.827 82.339 115.02 82.3229 115.274C82.3068 115.528 82.4994 115.747 82.7532 115.763C83.5392 115.813 84.5158 116.151 85.6316 116.736C86.418 117.149 87.2531 117.673 88.1157 118.282C88.9126 118.845 89.6886 119.45 90.4119 120.054L90.7724 120.359L91.3363 120.855C91.5237 121.027 91.815 121.015 91.9869 120.827C92.1589 120.639 92.1464 120.348 91.959 120.176L91.7012 119.945L91.3718 119.659C91.2551 119.559 91.1316 119.454 91.0019 119.346C90.2607 118.727 89.4655 118.107 88.6467 117.529C87.7532 116.897 86.8847 116.352 86.0589 115.919C84.8389 115.28 83.7494 114.903 82.8117 114.843Z" fill="#DD936F"/>
<path d="M92.9928 90.8495C92.8213 90.7884 92.6347 90.8613 92.5471 91.0139L92.5192 91.0748L88.4219 102.606C88.3385 102.84 88.505 103.089 88.7535 103.101L88.9669 103.114C89.1447 103.127 89.3515 103.145 89.5848 103.168C90.253 103.234 90.9984 103.332 91.8014 103.467C94.0949 103.853 96.3878 104.46 98.5241 105.334C102.431 106.933 105.36 109.24 106.926 112.367C107.017 112.55 107.24 112.624 107.423 112.532C107.606 112.44 107.68 112.217 107.588 112.034C105.931 108.724 102.864 106.308 98.8047 104.647C96.6127 103.75 94.2682 103.13 91.9243 102.735C91.2408 102.62 90.5979 102.532 90.0065 102.466L89.483 102.412L89.2839 102.394L93.2178 91.3237C93.2788 91.152 93.206 90.9652 93.0535 90.8775L92.9928 90.8495Z" fill="black"/>
<path d="M31.7386 99.1827C28.8823 97.9475 25.8493 97.4434 22.8543 98.097C22.6542 98.1406 22.5274 98.3384 22.571 98.5387C22.6146 98.7391 22.8121 98.8661 23.0122 98.8224C25.8354 98.2064 28.7188 98.6855 31.4445 99.8643C31.9965 100.103 32.5051 100.356 32.9637 100.611L33.2328 100.764C33.5461 100.946 33.7635 101.087 33.8737 101.165C34.0412 101.283 34.2725 101.242 34.3903 101.075C34.5082 100.907 34.4679 100.675 34.3004 100.557L34.1157 100.434C33.9696 100.34 33.7991 100.235 33.6056 100.122C33.0551 99.8015 32.4292 99.4814 31.7386 99.1827Z" fill="black"/>
<path d="M37.3363 111.539C37.2361 111.305 36.9654 111.197 36.7317 111.297C35.0971 111.998 33.5906 113.124 32.219 114.554C31.3812 115.428 30.6443 116.363 30.0135 117.298C29.8477 117.544 29.6981 117.777 29.565 117.994L29.3339 118.382C29.2897 118.459 29.2568 118.519 29.2354 118.559C29.1007 118.812 29.2273 119.119 29.487 119.21L29.5547 119.229L37.9493 120.845L65.6594 134.771C65.864 134.874 66.1086 134.81 66.2386 134.63L66.2775 134.566C66.3802 134.361 66.3161 134.116 66.1366 133.986L66.0725 133.947L38.3056 119.993L38.186 119.952L30.3687 118.446L30.4815 118.265C30.5272 118.193 30.5746 118.12 30.6238 118.045L30.7766 117.815C31.3798 116.921 32.0847 116.026 32.8834 115.193C34.1755 113.845 35.5851 112.792 37.0944 112.144C37.3282 112.044 37.4364 111.773 37.3363 111.539Z" fill="#DD936F"/>
<path d="M86.0063 146.147C85.9304 145.92 85.685 145.797 85.4582 145.873L84.9926 146.02L84.5829 146.143C84.2948 146.228 83.9772 146.319 83.6311 146.414C82.1451 146.822 80.444 147.23 78.5557 147.612C66.5764 150.031 53.8238 150.213 41.7985 146.7C41.5689 146.633 41.3285 146.765 41.2615 146.995C41.1945 147.224 41.3264 147.465 41.556 147.532C53.7349 151.09 66.6219 150.906 78.7269 148.462C80.6353 148.076 82.3556 147.663 83.8602 147.25L84.366 147.109C84.6081 147.04 84.8338 146.974 85.0426 146.911L85.6218 146.732C85.6675 146.717 85.7046 146.705 85.7331 146.695C85.9599 146.619 86.0822 146.374 86.0063 146.147Z" fill="#253368"/>
<path d="M66.6584 25.1183C66.3514 25.1183 66.1025 25.3675 66.1025 25.6749C66.1025 27.8133 67.7107 29.5652 69.7193 29.5652C71.7269 29.5652 73.3339 27.8133 73.3339 25.6749C73.3339 25.3675 73.085 25.1183 72.778 25.1183C72.471 25.1183 72.2221 25.3675 72.2221 25.6749C72.2221 27.2187 71.0908 28.452 69.7193 28.452C68.3465 28.452 67.2142 27.2185 67.2142 25.6749C67.2142 25.3675 66.9653 25.1183 66.6584 25.1183Z" fill="#253368"/>
<path d="M52.636 25.501C52.3448 25.501 52.1087 25.7374 52.1087 26.029C52.1087 28.1416 53.5532 29.8907 55.3896 29.8907C57.226 29.8907 58.6705 28.1416 58.6705 26.029C58.6705 25.7374 58.4344 25.501 58.1432 25.501C57.852 25.501 57.6159 25.7374 57.6159 26.029C57.6159 27.5981 56.5946 28.8347 55.3896 28.8347C54.1847 28.8347 53.1633 27.5981 53.1633 26.029C53.1633 25.7374 52.9272 25.501 52.636 25.501Z" fill="#253368"/>
<path d="M72.9381 19.1245C70.8163 18.2278 68.5698 18.3177 66.4462 19.0007C65.8359 19.197 65.3801 19.3953 65.1189 19.5333C64.8474 19.6768 64.7434 20.0135 64.8867 20.2854C65.03 20.5572 65.3662 20.6613 65.6377 20.5178L65.7773 20.4499C65.8205 20.4299 65.8716 20.4069 65.9302 20.3814C66.1805 20.2725 66.4677 20.163 66.7862 20.0605C68.6789 19.4518 70.6654 19.3723 72.5058 20.1501C72.8417 20.292 73.1691 20.462 73.4873 20.6612C73.7477 20.8241 74.0906 20.7449 74.2533 20.4842C74.416 20.2235 74.3369 19.8801 74.0766 19.7172C73.708 19.4866 73.3281 19.2894 72.9381 19.1245Z" fill="#253368"/>
<path fill-rule="evenodd" clip-rule="evenodd" d="M42.9787 146.139C33.2199 146.789 9.36178 208.218 0.361694 230.178C1.47571 234.635 8.49457 242.556 8.49457 242.556C8.49457 242.556 7.69362 246.084 7.20117 248.204C15.4414 255.153 31.4901 259.062 31.4901 259.062V262.102C57.0827 274.263 91.6685 263.294 91.6685 263.294C91.6685 263.294 92.3198 262.643 91.8856 260.254C103.57 260.254 128.754 245.705 128.754 245.705L125.284 238.322L135.694 227.898C135.694 227.898 103.883 173.424 98.4634 161.448C92.4272 148.11 85.758 145.633 85.758 145.633C85.758 145.633 60.2956 144.982 42.9787 146.139Z" fill="#002AB2"/>
<path d="M97.9156 180.371C97.8127 180.155 97.5543 180.063 97.3384 180.166C97.144 180.259 97.0504 180.478 97.1086 180.678L97.1337 180.744L127.777 245.133L127.392 245.41L127.065 245.639C126.24 246.212 125.268 246.851 124.155 247.539C120.971 249.508 117.298 251.477 113.187 253.315C106.587 256.266 99.5013 258.59 92.0204 260.047C91.7857 260.092 91.6324 260.32 91.678 260.555C91.7237 260.79 91.951 260.944 92.1858 260.898C99.7346 259.428 106.883 257.084 113.54 254.107C117.688 252.252 121.394 250.265 124.61 248.277C125.611 247.658 126.5 247.078 127.274 246.548L127.558 246.352C127.735 246.23 127.897 246.115 128.045 246.01L128.457 245.711C128.514 245.668 128.557 245.636 128.585 245.615C128.727 245.506 128.786 245.323 128.739 245.155L128.713 245.084L97.9156 180.371Z" fill="black"/>
<path d="M35.6551 174.725C35.4547 174.647 35.2312 174.728 35.1249 174.907L35.0941 174.971L6.36279 248.48C6.28888 248.669 6.35597 248.884 6.52421 248.998L6.72592 249.131C6.88964 249.237 7.08277 249.361 7.30437 249.5L7.8707 249.85C8.36317 250.15 8.90658 250.472 9.49812 250.811C11.8624 252.165 14.5102 253.519 17.3793 254.783C21.9311 256.788 26.6044 258.372 31.291 259.378C31.5249 259.428 31.7551 259.279 31.8052 259.045C31.8553 258.811 31.7064 258.58 31.4725 258.53C26.8477 257.538 22.2291 255.972 17.7281 253.989C14.8882 252.738 12.2672 251.398 9.92819 250.058C9.11017 249.589 8.38611 249.155 7.76384 248.765L7.29779 248.468L35.9006 175.287C35.979 175.086 35.8979 174.862 35.7185 174.756L35.6551 174.725Z" fill="black"/>
<path d="M51.8524 157.767C51.6183 157.717 51.3888 157.868 51.3397 158.102L49.7763 165.638C49.2204 168.331 48.6283 171.214 48.0058 174.261L47.4375 177.046C44.7361 190.305 42.0347 203.831 39.4867 216.952L38.853 220.223C38.3849 222.646 37.9259 225.035 37.4768 227.388L36.5042 232.508C34.4057 243.611 32.575 253.671 31.064 262.463C31.0282 262.672 31.1476 262.875 31.3466 262.946C32.7966 263.458 34.2675 263.928 35.7585 264.357C51.2921 268.826 67.8565 268.682 83.4534 265.76C85.8449 265.312 88.001 264.832 89.8866 264.352L90.5203 264.188C90.7224 264.134 90.9154 264.083 91.0992 264.032L91.8547 263.82C92.029 263.77 92.1549 263.732 92.2305 263.708C92.4191 263.65 92.5412 263.473 92.5357 263.281L92.5267 263.208L77.5544 188.951C77.507 188.716 77.2786 188.564 77.0442 188.612C76.8332 188.654 76.6892 188.844 76.6971 189.052L76.7054 189.123L91.5993 262.991L90.8704 263.196C90.508 263.295 90.1084 263.401 89.6731 263.512C87.8049 263.987 85.6669 264.464 83.2941 264.908C67.8184 267.807 51.3827 267.949 35.9977 263.524C34.818 263.184 33.6511 262.819 32.4975 262.427L31.9804 262.247L32.5385 259.029C33.9735 250.819 35.6619 241.607 37.5659 231.556L37.9925 229.308C38.5477 226.39 39.1183 223.415 39.7033 220.388C42.014 208.429 44.4645 196.083 46.9364 183.867L49.4061 171.738L52.1873 158.28C52.2364 158.046 52.0865 157.816 51.8524 157.767Z" fill="black"/>
<path d="M64.2175 159.17C64.0025 159.182 63.8325 159.349 63.8099 159.556L63.8079 159.627L67.5956 231.178C67.6082 231.417 67.8121 231.6 68.0509 231.588C68.2659 231.576 68.4359 231.41 68.4585 231.202L68.4604 231.132L64.6728 159.581C64.6601 159.342 64.4563 159.158 64.2175 159.17Z" fill="black"/>
<path d="M76.8988 148.283C76.8242 148.055 76.5796 147.931 76.3523 148.006C76.1478 148.073 76.0272 148.279 76.0595 148.485L76.076 148.553L90.3891 192.202C90.4637 192.43 90.7084 192.553 90.9356 192.479C91.1401 192.411 91.2607 192.206 91.2284 192L91.2119 191.931L76.8988 148.283Z" fill="black"/>
<path fill-rule="evenodd" clip-rule="evenodd" d="M106.205 417.587C106.344 418.198 108.421 396.343 108.321 389.899C99.6996 391.04 91.729 390.225 91.729 390.225C91.729 390.225 92.8681 415.143 92.5425 417.587C98.7238 421.333 106.205 417.587 106.205 417.587Z" fill="#597EF7"/>
<path fill-rule="evenodd" clip-rule="evenodd" d="M104.436 447.157C103.365 455.796 98.724 460.367 93.9355 460.872C88.0055 461.499 81.5488 459.825 80.5056 454.503C79.3151 448.428 82.4377 445.321 85.926 436.635C89.4143 427.948 91.0791 420.518 92.3793 414.33C92.3793 414.33 96.8262 411.724 95.6334 419.215C94.6667 425.281 92.3256 442.343 88.2055 443.537C92.2182 443.212 100.46 446.36 100.46 446.36C100.46 446.36 97.5312 441.8 97.7471 440.279C97.9642 438.76 100.388 423.185 100.512 418.564C100.637 413.995 104.596 414.546 106.504 415.081C107.098 415.247 107.476 415.821 107.404 416.435C107.224 417.957 104.942 443.067 104.436 447.157Z" fill="#4E5C93"/>
<path fill-rule="evenodd" clip-rule="evenodd" d="M102.302 424.265C102.302 424.265 107.249 413.897 102.302 412.865C98.3982 412.05 94.6574 411.886 94.1695 412.865C93.9879 413.228 94.0062 416.61 92.7059 423.613C91.1863 431.789 87.3026 441.378 85.8733 443.32C83.5961 446.415 86.0367 446.577 91.5667 448.044C97.0968 449.509 99.0483 449.509 100.513 446.577C101.977 443.646 101.977 430.617 102.302 424.265Z" fill="#4E5C93"/>
<path d="M92.7523 426.82C92.455 426.704 92.1203 426.852 92.0047 427.15C91.889 427.447 92.0363 427.782 92.3336 427.898C93.0105 428.162 93.7585 428.527 94.5647 428.983C95.3405 429.421 96.1578 429.935 97.0023 430.51C97.8132 431.062 98.6153 431.646 99.3858 432.236L99.8169 432.57L99.7897 432.572C99.1382 432.596 98.447 432.669 97.7197 432.788L97.3531 432.851C95.9314 433.108 94.4234 433.52 92.8823 434.046C91.9379 434.368 91.0382 434.713 90.2127 435.058L89.8013 435.233L89.1526 435.523C88.6271 435.77 88.7543 436.552 89.3311 436.62C91.5101 436.877 93.8502 438.047 96.1937 439.843C97.1422 440.57 98.0255 441.35 98.8189 442.13C98.9853 442.293 99.1404 442.45 99.2836 442.597L99.5538 442.881C99.6794 443.015 99.7648 443.11 99.8069 443.158C100.017 443.399 100.382 443.423 100.622 443.213C100.862 443.002 100.886 442.637 100.676 442.397L100.473 442.172L100.397 442.09C100.175 441.853 99.9173 441.588 99.6281 441.304C98.8028 440.493 97.8847 439.682 96.8958 438.924C95.1005 437.548 93.2949 436.512 91.5202 435.933L91.3009 435.864L91.6542 435.724C91.9968 435.591 92.349 435.46 92.7091 435.331L93.2548 435.141C94.7451 434.633 96.1991 434.235 97.5581 433.989C99.0501 433.72 100.37 433.646 101.465 433.795C102.037 433.873 102.357 433.156 101.917 432.782L101.581 432.501L101.059 432.078C100.935 431.979 100.805 431.876 100.671 431.77C99.7097 431.015 98.6891 430.259 97.6517 429.553C96.7821 428.962 95.9382 428.431 95.1323 427.975C94.2814 427.495 93.4853 427.106 92.7523 426.82Z" fill="#CCD7EE"/>
<path d="M101.667 428.314C100.55 428.065 99.1973 428.055 97.6555 428.241C96.4206 428.39 95.109 428.659 93.7727 429.014C93.1827 429.17 92.6173 429.336 92.0876 429.503L91.5335 429.683L90.877 429.912C90.375 430.099 90.3755 430.81 90.8777 430.996C92.7981 431.708 94.6669 432.824 96.4472 434.233C97.4464 435.025 98.3647 435.866 99.1884 436.714L99.6298 437.178L99.8533 437.421L99.1158 437.437C98.9126 437.442 98.7027 437.449 98.4865 437.457L98.1577 437.47C96.4954 437.542 94.8541 437.682 93.3156 437.906C90.5343 438.312 88.3344 438.956 86.9086 439.908C86.6432 440.085 86.5715 440.444 86.7484 440.71C86.9254 440.975 87.284 441.047 87.5494 440.87C88.7984 440.036 90.8567 439.434 93.4821 439.051C94.978 438.832 96.5814 438.696 98.2073 438.626C98.9692 438.593 99.6603 438.578 100.252 438.574L101.096 438.578C101.583 438.589 101.864 438.029 101.565 437.645L101.324 437.349L101.252 437.263C101.002 436.968 100.709 436.639 100.377 436.285C99.4303 435.276 98.3532 434.268 97.1637 433.326C95.793 432.241 94.3676 431.319 92.8985 430.605L92.7167 430.519L92.8266 430.485C93.0916 430.405 93.3647 430.325 93.6444 430.247L94.0687 430.132C95.3568 429.79 96.6175 429.531 97.7936 429.39C99.2167 429.218 100.446 429.227 101.417 429.443C101.728 429.512 102.037 429.316 102.106 429.004C102.175 428.692 101.979 428.383 101.667 428.314Z" fill="#CCD7EE"/>
<path fill-rule="evenodd" clip-rule="evenodd" d="M103.929 448.858C103.929 448.858 92.2179 439.085 81.4823 446.252C78.7983 452.242 80.35 455.803 81.6445 457.652C82.1804 458.417 83.1961 459.485 84.0725 459.802C86.6867 460.747 93.541 462.644 98.3981 459.444C104.579 455.372 103.929 448.858 103.929 448.858Z" fill="#CCD7EE"/>
<path d="M82.3842 446.198C82.2347 446.118 82.0489 446.175 81.9692 446.325C80.4543 449.169 82.0442 452.859 84.2395 454.326C85.8026 455.369 91.3187 456.313 95.7008 456.114C97.8775 456.014 99.6275 454.665 100.991 452.499C101.481 451.72 101.887 450.889 102.213 450.057C102.299 449.838 102.374 449.632 102.44 449.439L102.552 449.095C102.573 449.027 102.589 448.974 102.598 448.939C102.643 448.775 102.547 448.606 102.383 448.562C102.22 448.517 102.051 448.613 102.007 448.777L101.919 449.062L101.793 449.429C101.747 449.558 101.697 449.693 101.642 449.832C101.329 450.63 100.94 451.428 100.472 452.171C99.205 454.184 97.6133 455.412 95.6729 455.5C91.4093 455.694 86.0115 454.77 84.5799 453.815C82.6197 452.505 81.1677 449.135 82.5106 446.614C82.5903 446.464 82.5337 446.278 82.3842 446.198Z" fill="#A3B5D6"/>
<path d="M108.397 393.687C108.33 393.375 108.023 393.176 107.711 393.243L107.227 393.337L106.981 393.382C106.386 393.488 105.71 393.594 104.964 393.693C101.222 394.191 97.332 394.326 93.7094 393.878C93.3457 393.833 92.987 393.782 92.6336 393.726C92.3186 393.675 92.0224 393.89 91.9719 394.205C91.9215 394.521 92.1359 394.817 92.4509 394.868C92.8182 394.927 93.1906 394.979 93.5679 395.026C97.3018 395.487 101.284 395.349 105.116 394.84C105.752 394.755 106.339 394.666 106.871 394.575L107.486 394.465L107.953 394.374C108.265 394.307 108.464 393.999 108.397 393.687Z" fill="#CCD7EE"/>
<path d="M97.913 421.789L97.8344 421.786L97.3697 421.81C97.0048 421.832 96.5987 421.862 96.1615 421.902C94.9112 422.015 93.6603 422.182 92.4888 422.413C88.423 423.214 86.1299 424.584 86.8979 426.891C87.6073 429.021 89.7878 428.725 92.7589 426.957C93.3912 426.581 94.0529 426.141 94.7342 425.65C95.5357 425.073 96.3233 424.456 97.0645 423.839L97.2545 423.679L97.5294 423.445L97.8962 423.968L98.0787 424.223C98.7917 425.212 99.5544 426.2 100.337 427.125C101.129 428.059 101.899 428.877 102.633 429.547C104.614 431.351 106.279 432.041 107.534 431.075C108.293 430.49 108.382 429.649 107.897 428.779C107.535 428.13 106.852 427.432 105.885 426.671C105.152 426.095 104.265 425.491 103.258 424.869C102.225 424.233 101.121 423.611 100.017 423.029L99.4591 422.739L98.5406 422.278C98.5166 422.266 98.4923 422.257 98.4677 422.249L98.4183 422.236L98.4067 422.19C98.3381 421.972 98.1446 421.812 97.913 421.789ZM99.3286 423.974L99.4788 424.053C100.561 424.623 101.644 425.232 102.652 425.854C103.625 426.454 104.477 427.034 105.172 427.581C106.028 428.255 106.618 428.857 106.888 429.342C107.115 429.748 107.093 429.955 106.829 430.158C106.203 430.64 105.007 430.145 103.41 428.691C102.717 428.059 101.98 427.276 101.218 426.377C100.609 425.657 100.01 424.895 99.4387 424.125L99.3286 423.974ZM96.1903 423.061L95.8876 423.31C95.2969 423.789 94.6817 424.264 94.0597 424.712C93.404 425.184 92.7698 425.605 92.1687 425.963C89.7781 427.386 88.345 427.58 87.9938 426.525C87.5721 425.259 89.3162 424.217 92.712 423.547C93.6517 423.362 94.6504 423.219 95.6593 423.113L96.1903 423.061Z" fill="#CCD7EE"/>
<path d="M102.679 416.577C102.388 416.55 102.128 416.745 102.064 417.023L102.052 417.1L101.619 421.878C101.59 422.196 101.824 422.477 102.142 422.506C102.433 422.533 102.693 422.338 102.757 422.06L102.769 421.982L103.202 417.205C103.231 416.887 102.997 416.606 102.679 416.577Z" fill="#CCD7EE"/>
<path d="M95.0886 415.057C94.7974 415.03 94.5371 415.225 94.4735 415.503L94.4612 415.58L94.0282 420.358C93.9993 420.676 94.2335 420.957 94.5512 420.986C94.8424 421.013 95.1027 420.818 95.1662 420.54L95.1786 420.462L95.6116 415.685C95.6404 415.367 95.4063 415.086 95.0886 415.057Z" fill="#CCD7EE"/>
<path d="M79.4964 92.4195C79.4816 92.4987 79.4449 92.5571 79.3863 92.5948C79.3306 92.6329 79.2735 92.6466 79.2148 92.6356C79.1679 92.6269 79.1278 92.6057 79.0946 92.5722C79.0649 92.5363 79.0547 92.4935 79.064 92.4436C79.0733 92.3937 79.0964 92.351 79.1334 92.3154C79.1739 92.2774 79.2165 92.252 79.2614 92.2391C79.2059 92.1954 79.1414 92.1667 79.0681 92.153C78.9449 92.13 78.8288 92.1584 78.7198 92.2383C78.6143 92.3157 78.5492 92.4205 78.5246 92.5525C78.4907 92.7343 78.5237 92.8831 78.6235 92.9989C78.7233 93.1146 78.8627 93.1891 79.0416 93.2225C79.2616 93.2635 79.4481 93.2482 79.6011 93.1766C79.7541 93.105 79.8497 92.9665 79.888 92.7612C79.9131 92.6262 79.8896 92.5004 79.8172 92.3837C79.7484 92.2647 79.6572 92.1596 79.5436 92.0686C79.4301 91.9777 79.3168 91.8852 79.2038 91.7913C79.0908 91.6974 78.9992 91.5862 78.9291 91.4578C78.8619 91.3299 78.8419 91.1927 78.8693 91.046C78.9092 90.8319 79.0153 90.6862 79.1875 90.6091C79.3632 90.5295 79.5669 90.5114 79.7986 90.5546C79.9981 90.5918 80.158 90.6702 80.2784 90.7897C80.4022 90.9069 80.4461 91.0623 80.41 91.2559C80.3848 91.3908 80.3199 91.5032 80.2151 91.5929C80.1133 91.6832 79.9905 91.7149 79.8468 91.6881C79.7734 91.6744 79.7137 91.6451 79.6674 91.6C79.6217 91.5521 79.6049 91.4958 79.6169 91.4313C79.6257 91.3843 79.6487 91.3507 79.6859 91.3303C79.7265 91.3075 79.7703 91.3005 79.8173 91.3093C79.8554 91.3164 79.8934 91.3402 79.9314 91.3806C79.9723 91.4217 80.0016 91.4681 80.0193 91.52C80.1165 91.4379 80.1747 91.3456 80.1939 91.2429C80.2179 91.1139 80.1867 91.0048 80.1001 90.9158C80.014 90.8239 79.9035 90.7654 79.7686 90.7402C79.6131 90.7112 79.4691 90.7268 79.3364 90.7871C79.2038 90.8473 79.1243 90.9479 79.0981 91.0887C79.0789 91.1913 79.1052 91.2949 79.1767 91.3993C79.2513 91.5042 79.345 91.6037 79.458 91.6976C79.574 91.792 79.6879 91.8892 79.7998 91.9889C79.9146 92.0893 80.0048 92.2078 80.0704 92.3444C80.1389 92.4817 80.1589 92.6265 80.1305 92.7791C80.0796 93.0518 79.958 93.2401 79.7657 93.3439C79.5733 93.4476 79.3334 93.4727 79.046 93.4191C78.7966 93.3726 78.5996 93.2736 78.4548 93.1222C78.3106 92.9678 78.2617 92.766 78.3082 92.5166C78.3443 92.3231 78.434 92.1759 78.5772 92.0751C78.7234 91.9749 78.9065 91.9453 79.1265 91.9863C79.2321 92.006 79.3246 92.0551 79.404 92.1337C79.4869 92.2098 79.5177 92.3051 79.4964 92.4195Z" fill="#25282B"/>
<path d="M80.804 92.6637C80.7892 92.7429 80.8024 92.8106 80.8435 92.8668C80.8817 92.9225 80.9301 92.9558 80.9888 92.9668C81.0357 92.9755 81.0807 92.9702 81.1237 92.951C81.1644 92.9282 81.1894 92.8919 81.1987 92.842C81.208 92.7921 81.2018 92.7439 81.1801 92.6974C81.1561 92.6474 81.1254 92.6083 81.0882 92.5801C81.1558 92.5593 81.2263 92.5558 81.2996 92.5694C81.4228 92.5924 81.5208 92.6608 81.5937 92.7745C81.6642 92.8848 81.6871 93.0059 81.6625 93.1379C81.6286 93.3198 81.5443 93.4467 81.4094 93.5187C81.2746 93.5907 81.1177 93.61 80.9388 93.5766C80.7188 93.5356 80.5504 93.4541 80.4335 93.3322C80.3166 93.2102 80.2773 93.0466 80.3156 92.8412C80.3408 92.7063 80.4081 92.5974 80.5176 92.5147C80.6248 92.4284 80.7477 92.3633 80.8864 92.3194C81.0251 92.2754 81.1641 92.23 81.3033 92.1831C81.4426 92.1363 81.5681 92.0656 81.6798 91.9711C81.7886 91.876 81.8566 91.7552 81.884 91.6085C81.9239 91.3944 81.8775 91.2203 81.7446 91.0863C81.6094 90.9487 81.4259 90.8584 81.1942 90.8152C80.9948 90.778 80.8173 90.7934 80.662 90.8616C80.5042 90.9263 80.4073 91.0554 80.3712 91.249C80.346 91.3839 80.3661 91.5121 80.4315 91.6336C80.494 91.7545 80.597 91.8284 80.7408 91.8552C80.8141 91.8688 80.8804 91.863 80.9398 91.8376C80.9997 91.8093 81.0357 91.7629 81.0477 91.6984C81.0565 91.6515 81.0472 91.6118 81.0198 91.5794C80.9901 91.5435 80.9518 91.5212 80.9048 91.5124C80.8667 91.5053 80.8226 91.5138 80.7726 91.5378C80.7197 91.5614 80.6756 91.5941 80.6405 91.6361C80.5793 91.5246 80.5583 91.4174 80.5775 91.3148C80.6015 91.1857 80.67 91.0953 80.7829 91.0435C80.8963 90.9888 81.0204 90.974 81.1554 90.9991C81.3108 91.0281 81.4395 91.0946 81.5416 91.1986C81.6436 91.3026 81.6815 91.425 81.6552 91.5658C81.6361 91.6685 81.5743 91.7556 81.4699 91.8272C81.3625 91.8983 81.2392 91.9572 81.1 92.0041C80.9578 92.0504 80.8165 92.1 80.6762 92.1527C80.5329 92.2049 80.406 92.2829 80.2956 92.3868C80.1823 92.4901 80.1114 92.618 80.0829 92.7705C80.0321 93.0433 80.0776 93.2628 80.2197 93.4289C80.3617 93.595 80.5764 93.7048 80.8639 93.7584C81.1132 93.8049 81.3327 93.7836 81.5223 93.6945C81.7125 93.6025 81.8308 93.4319 81.8773 93.1825C81.9134 92.9889 81.8828 92.8193 81.7855 92.6737C81.6853 92.5275 81.5252 92.4339 81.3052 92.3929C81.1996 92.3732 81.0956 92.3857 80.9932 92.4303C80.8884 92.4715 80.8253 92.5493 80.804 92.6637Z" fill="#25282B"/>
<path d="M81.8226 88.9411C81.8748 88.9732 81.9074 89.0166 81.9202 89.0711C81.9331 89.1257 81.9233 89.179 81.8908 89.2311C81.8539 89.2901 81.8048 89.3251 81.7433 89.336C81.6818 89.3468 81.6242 89.3358 81.5705 89.3028C81.5168 89.2698 81.4832 89.2268 81.4694 89.1736C81.4557 89.1204 81.4651 89.0678 81.4976 89.0158C81.53 88.9638 81.5769 88.9293 81.6382 88.9125C81.7018 88.8951 81.7633 88.9047 81.8226 88.9411ZM81.747 89.0435C81.7201 89.027 81.692 89.0204 81.6626 89.0238C81.6354 89.0266 81.6131 89.042 81.5955 89.0701C81.5639 89.1208 81.5771 89.1639 81.635 89.1994C81.6619 89.2159 81.6896 89.2232 81.7181 89.2213C81.7467 89.2194 81.7697 89.2043 81.7873 89.1762C81.8197 89.1242 81.8063 89.0799 81.747 89.0435ZM80.9956 90.4496C80.9694 90.4101 80.9682 90.3714 80.9919 90.3335C81.0086 90.3067 81.0322 90.2892 81.0629 90.2808C81.0935 90.2723 81.123 90.2768 81.1512 90.2942C81.178 90.3107 81.1948 90.3355 81.2014 90.3688C81.208 90.402 81.2025 90.4327 81.185 90.4608C81.1446 90.5255 81.0748 90.5575 80.9756 90.5569C80.8763 90.5562 80.79 90.5333 80.7165 90.4882C80.66 90.4535 80.6219 90.4097 80.6022 90.3567C80.5839 90.3046 80.5928 90.2498 80.6287 90.1921C80.6682 90.1288 80.7412 90.0589 80.8476 89.9822C80.9549 89.9042 81.0587 89.8318 81.159 89.765C81.2602 89.6968 81.3226 89.6437 81.3463 89.6057C81.3691 89.5692 81.3622 89.5396 81.3255 89.517C81.2944 89.4979 81.2485 89.4853 81.1879 89.4792C81.1286 89.4739 81.0849 89.4782 81.0568 89.4921C81.0702 89.5081 81.0782 89.5266 81.0807 89.5476C81.0847 89.5695 81.0809 89.5896 81.0695 89.6078C81.0555 89.6303 81.0354 89.6453 81.0093 89.6526C80.9833 89.6599 80.9597 89.6571 80.9385 89.6441C80.8862 89.612 80.8864 89.5537 80.939 89.4694C80.9803 89.4033 81.0452 89.3682 81.1336 89.3642C81.2235 89.361 81.3045 89.3816 81.3765 89.4258C81.4245 89.4553 81.4562 89.4923 81.4715 89.5367C81.4868 89.5811 81.479 89.6279 81.4483 89.6771C81.4281 89.7095 81.3679 89.759 81.2676 89.8258C81.1687 89.8935 81.0668 89.9661 80.9618 90.0436C80.8576 90.1197 80.7875 90.1865 80.7516 90.2442C80.7112 90.3089 80.7214 90.3599 80.7821 90.3972C80.8584 90.444 80.9296 90.4615 80.9956 90.4496Z" fill="#25282B"/>
<path d="M79.9598 88.5939C79.8995 88.6051 79.8535 88.6337 79.8219 88.68C79.7903 88.7263 79.7802 88.7796 79.7917 88.8398C79.8048 88.9082 79.8381 88.9585 79.8915 88.9908C79.945 89.0231 80.0027 89.0336 80.0646 89.0222C80.1266 89.0107 80.1735 88.9827 80.2055 88.9381C80.2374 88.8934 80.2476 88.841 80.2361 88.7807C80.2246 88.7205 80.1933 88.6715 80.1421 88.6337C80.0891 88.5946 80.0283 88.5813 79.9598 88.5939ZM79.9935 88.7167C80.0244 88.711 80.0531 88.715 80.0793 88.7287C80.1036 88.7411 80.1189 88.7635 80.1251 88.7961C80.1364 88.8547 80.1085 88.8902 80.0417 88.9025C80.0107 88.9082 79.9823 88.905 79.9563 88.8929C79.9304 88.8809 79.9143 88.8585 79.9081 88.826C79.8965 88.7657 79.925 88.7293 79.9935 88.7167ZM80.1876 90.299C80.2262 90.2717 80.2413 90.236 80.2329 90.1921C80.227 90.1612 80.2112 90.1362 80.1857 90.1174C80.1601 90.0985 80.131 90.092 80.0984 90.098C80.0675 90.1037 80.0429 90.1209 80.0248 90.1495C80.0066 90.1781 80.0006 90.2087 80.0069 90.2413C80.0212 90.3162 80.0748 90.3712 80.1676 90.4064C80.2604 90.4415 80.3492 90.4513 80.434 90.4357C80.4992 90.4237 80.5505 90.3965 80.588 90.3542C80.6238 90.3122 80.6354 90.2579 80.6226 90.1911C80.6086 90.1179 80.5657 90.0263 80.4941 89.9165C80.4221 89.805 80.3513 89.7 80.2819 89.6016C80.2121 89.5015 80.173 89.4295 80.1646 89.3855C80.1565 89.3432 80.1736 89.3181 80.216 89.3103C80.2518 89.3037 80.2992 89.3085 80.358 89.3246C80.4151 89.3411 80.4543 89.3608 80.4756 89.3839C80.4573 89.394 80.4432 89.4084 80.4333 89.427C80.4217 89.446 80.418 89.4661 80.422 89.4873C80.427 89.5133 80.4403 89.5345 80.462 89.5507C80.4837 89.5669 80.5067 89.5728 80.5312 89.5683C80.5915 89.5572 80.6123 89.5028 80.5936 89.4051C80.579 89.3286 80.5311 89.2725 80.45 89.2369C80.3673 89.2015 80.2844 89.1915 80.2012 89.2068C80.1458 89.217 80.103 89.2401 80.0727 89.276C80.0425 89.3119 80.0328 89.3584 80.0437 89.4154C80.0509 89.4528 80.0892 89.5208 80.1587 89.6192C80.2265 89.718 80.2955 89.8224 80.3655 89.9325C80.4352 90.0411 80.4765 90.1287 80.4892 90.1954C80.5036 90.2703 80.4757 90.3142 80.4056 90.3272C80.3176 90.3434 80.2449 90.334 80.1876 90.299Z" fill="#25282B"/>
<path d="M51.5761 26.0471C51.522 26.0371 51.4571 26.0686 51.4311 26.1177C51.4051 26.1667 51.4279 26.2146 51.482 26.2246L51.5761 26.0471ZM52.4025 26.2009L51.5761 26.0471L51.482 26.2246L52.3084 26.3784L52.4025 26.2009Z" fill="#253368"/>
<path d="M51.3052 26.8449C51.2519 26.8593 51.22 26.9144 51.234 26.9678C51.248 27.0212 51.3025 27.0528 51.3558 27.0384L51.3052 26.8449ZM52.422 26.542L51.3052 26.8449L51.3558 27.0384L52.4726 26.7355L52.422 26.542Z" fill="#253368"/>
<path d="M51.9553 27.6252C51.9202 27.6682 51.9334 27.7188 51.9848 27.7382C52.0362 27.7577 52.1064 27.7387 52.1415 27.6957L51.9553 27.6252ZM52.4616 27.0061L51.9553 27.6252L52.1415 27.6957L52.6478 27.0766L52.4616 27.0061Z" fill="#253368"/>
<path d="M53.8005 29.6466C53.7562 29.6791 53.7369 29.7474 53.7573 29.7991C53.7777 29.8507 53.8302 29.8662 53.8744 29.8336L53.8005 29.6466ZM54.1979 29.3542L53.8005 29.6466L53.8744 29.8336L54.2719 29.5412L54.1979 29.3542Z" fill="#253368"/>
<path d="M54.0408 30.104C54.0159 30.1534 54.0355 30.214 54.0846 30.2393C54.1336 30.2647 54.1935 30.2453 54.2184 30.196L54.0408 30.104ZM54.3434 29.5029L54.0408 30.104L54.2184 30.196L54.521 29.5949L54.3434 29.5029Z" fill="#253368"/>
<path d="M54.6533 30.1757C54.6631 30.2303 54.7111 30.2552 54.7606 30.2312C54.81 30.2073 54.8421 30.1435 54.8322 30.0889L54.6533 30.1757ZM54.5693 29.7088L54.6533 30.1757L54.8322 30.0889L54.7482 29.622L54.5693 29.7088Z" fill="#253368"/>
<path d="M52.1817 28.2288C52.1305 28.2484 52.0922 28.3094 52.0962 28.365C52.1003 28.4205 52.145 28.4497 52.1962 28.4301L52.1817 28.2288ZM52.7248 28.0208L52.1817 28.2288L52.1962 28.4301L52.7394 28.222L52.7248 28.0208Z" fill="#253368"/>
<path d="M52.2966 28.815C52.259 28.8554 52.2608 28.9193 52.3006 28.9576C52.3404 28.9959 52.4031 28.9941 52.4407 28.9537L52.2966 28.815ZM52.842 28.228L52.2966 28.815L52.4407 28.9537L52.9861 28.3667L52.842 28.228Z" fill="#253368"/>
<path d="M52.96 29.0714C52.9531 29.1267 52.9911 29.1633 53.045 29.1532C53.0988 29.1431 53.148 29.0902 53.1549 29.0349L52.96 29.0714ZM53.0293 28.5169L52.96 29.0714L53.1549 29.0349L53.2242 28.4804L53.0293 28.5169Z" fill="#253368"/>
<path d="M73.9119 26.055C73.9659 26.0437 74.0297 26.0746 74.0544 26.124C74.079 26.1734 74.0552 26.2227 74.0011 26.234L73.9119 26.055ZM73.1172 26.2214L73.9119 26.055L74.0011 26.234L73.2065 26.4003L73.1172 26.2214Z" fill="#253368"/>
<path d="M74.1598 26.8471C74.2132 26.8613 74.2449 26.9161 74.2307 26.9695C74.2165 27.0228 74.1617 27.0546 74.1084 27.0404L74.1598 26.8471ZM73.094 26.5633L74.1598 26.8471L74.1084 27.0404L73.0425 26.7565L73.094 26.5633Z" fill="#253368"/>
<path d="M73.5273 27.6333C73.5613 27.6769 73.5474 27.729 73.4963 27.7499C73.4451 27.7707 73.3761 27.7523 73.3421 27.7088L73.5273 27.6333ZM73.0517 27.0249L73.5273 27.6333L73.3421 27.7088L72.8664 27.1003L73.0517 27.0249Z" fill="#253368"/>
<path d="M71.6435 29.3778C71.6862 29.4128 71.6952 29.4778 71.6636 29.5231C71.6319 29.5684 71.5716 29.5767 71.5289 29.5417L71.6435 29.3778ZM71.2486 29.0543L71.6435 29.3778L71.5289 29.5417L71.1341 29.2183L71.2486 29.0543Z" fill="#253368"/>
<path d="M71.2529 29.8149C71.271 29.8671 71.2434 29.9241 71.1912 29.9422C71.139 29.9603 71.0821 29.9327 71.0639 29.8805L71.2529 29.8149ZM71.0359 29.1897L71.2529 29.8149L71.0639 29.8805L70.8469 29.2553L71.0359 29.1897Z" fill="#253368"/>
<path d="M70.5422 29.8295C70.5202 29.8801 70.4629 29.9 70.4143 29.8739C70.3656 29.8478 70.344 29.7855 70.366 29.7349L70.5422 29.8295ZM70.7425 29.3686L70.5422 29.8295L70.366 29.7349L70.5663 29.274L70.7425 29.3686Z" fill="#253368"/>
<path d="M72.9805 28.0375C73.0344 28.0498 73.083 28.1043 73.0891 28.1592C73.0952 28.2141 73.0565 28.2486 73.0027 28.2363L72.9805 28.0375ZM72.3794 27.9002L72.9805 28.0375L73.0027 28.2363L72.4016 28.099L72.3794 27.9002Z" fill="#253368"/>
<path d="M72.9701 28.6424C73.0139 28.6761 73.022 28.7389 72.9883 28.7827C72.9546 28.8264 72.8918 28.8346 72.8481 28.8009L72.9701 28.6424ZM72.2953 28.1226L72.9701 28.6424L72.8481 28.8009L72.1732 28.281L72.2953 28.1226Z" fill="#253368"/>
<path d="M72.3308 28.9897C72.3476 29.0423 72.3166 29.0827 72.2614 29.0798C72.2063 29.077 72.1479 29.032 72.1311 28.9794L72.3308 28.9897ZM72.1546 28.4387L72.3308 28.9897L72.1311 28.9794L71.9548 28.4284L72.1546 28.4387Z" fill="#253368"/>
<path d="M75.1095 32.2234H71.9965" stroke="#C25353" stroke-opacity="0.15" stroke-width="0.3" stroke-linecap="round"/>
<path d="M75.5586 33.1129H72.4456" stroke="#C25353" stroke-opacity="0.15" stroke-width="0.3" stroke-linecap="round"/>
<path d="M76 34.0024H72.887" stroke="#C25353" stroke-opacity="0.15" stroke-width="0.3" stroke-linecap="round"/>
<path d="M55.5488 33.113H51.9911" stroke="#C25353" stroke-opacity="0.15" stroke-width="0.3" stroke-linecap="round"/>
<path d="M55.9902 34.0024H51.543" stroke="#C25353" stroke-opacity="0.15" stroke-width="0.3" stroke-linecap="round"/>
<path d="M55.5488 34.8918H51.9911" stroke="#C25353" stroke-opacity="0.15" stroke-width="0.3" stroke-linecap="round"/>
</svg>
